<svg xmlns="http://www.w3.org/2000/svg" width="255.325" height="255.325" viewBox="0 0 255.325 255.325">
  <path id="box_2_" data-name="box (2)" d="M215.431,0h-115.2a40.042,40.042,0,0,0-29,12.5L15.1,68.52A39.832,39.832,0,0,0,0,99.736V215.43a39.939,39.939,0,0,0,39.895,39.895h115.2a39.777,39.777,0,0,0,28.832-12.364c.062-.06.131-.111.193-.173l59.556-59.018.051-.053a39.651,39.651,0,0,0,11.6-28.129V39.894A39.939,39.939,0,0,0,215.431,0Zm-43.662,63.51a39.647,39.647,0,0,0-16.679-3.668h-31.4l40.744-39.895h50.943Zm-86.334-37,.236-.243a19.759,19.759,0,0,1,14.565-6.317h35.689L95.178,59.841H52.032ZM235.378,155.588a19.818,19.818,0,0,1-5.778,14.039l-34.616,34.306V185.509a9.974,9.974,0,1,0-19.947,0V215.43a19.971,19.971,0,0,1-19.947,19.947H39.895A19.971,19.971,0,0,1,19.948,215.43V99.736A19.971,19.971,0,0,1,39.895,79.789H88.766v45.879a9.974,9.974,0,1,0,19.947,0V79.789H155.09a19.971,19.971,0,0,1,19.947,19.947v35.905a9.974,9.974,0,0,0,19.947,0V99.736a39.669,39.669,0,0,0-7.7-23.528l45.746-45.7a19.826,19.826,0,0,1,2.351,9.383ZM155.09,185.509v19.947a9.974,9.974,0,0,1-19.947,0V185.509a9.974,9.974,0,0,1,19.947,0Zm0,0" transform="translate(0 0)" fill="#ffb607"/>
</svg>
