<svg id="delivery-truck" xmlns="http://www.w3.org/2000/svg" width="255.325" height="210.992" viewBox="0 0 255.325 210.992">
  <g id="Group_3" data-name="Group 3" transform="translate(0 0)">
    <path id="Path_4" data-name="Path 4" d="M224.811,151.629,219.1,122.574c-1.564-8.155-4.262-14.381-8.249-19.035-5.14-6-12.35-9.17-20.852-9.17H156.586V54.424a9.973,9.973,0,0,0-9.974-9.974H9.974A9.973,9.973,0,0,0,0,54.424V195.6a39.933,39.933,0,0,0,39.11,39.875,29.914,29.914,0,0,0,56.417.02H157.3a29.915,29.915,0,0,0,56.411,0h31.636a9.973,9.973,0,0,0,9.974-9.974V189.616A38.967,38.967,0,0,0,224.811,151.629Zm-68.225-37.313H190c3.044,0,7.212,0,9.515,12.035,0,.016.006.033.009.05l4.879,24.817H156.586ZM67.322,235.495a9.974,9.974,0,1,1,9.974-9.974A9.985,9.985,0,0,1,67.322,235.495Zm118.188,0a9.974,9.974,0,1,1,9.974-9.974A9.985,9.985,0,0,1,185.51,235.495Zm49.868-19.947H213.715a29.915,29.915,0,0,0-56.411,0H95.527a29.915,29.915,0,0,0-56.4-.019A19.968,19.968,0,0,1,19.947,195.6V64.4H136.639v86.82H49.868a9.974,9.974,0,0,0,0,19.947H215.929a9.961,9.961,0,0,0,2.665-.371,18.975,18.975,0,0,1,16.783,18.822Z" transform="translate(0 -44.45)" fill="#ffb607"/>
  </g>
</svg>
