<svg xmlns="http://www.w3.org/2000/svg" width="255.325" height="255.325" viewBox="0 0 255.325 255.325">
  <path id="do-not-tilt" d="M252.4,238.3,17.028,2.922a9.973,9.973,0,0,0-14.105,14.1L43.384,57.486l-40.535,85-.033.074A30.1,30.1,0,0,0,8.552,176.2L77.22,246.337a29.977,29.977,0,0,0,33.638,6.352l88.621-39.106L238.3,252.4A9.974,9.974,0,1,0,252.4,238.3ZM95.811,109.916l-70.575,31.97,33.11-69.435Zm6.958,124.54-.082.037a9.987,9.987,0,0,1-11.215-2.11l-66.88-68.308,86.289-39.088,73.468,73.468ZM80.722,42.608a9.972,9.972,0,0,1,4.831-13.25L142.575,2.809A30.1,30.1,0,0,1,176.2,8.549l70.137,68.67a30,30,0,0,1,6.341,33.663l-26.142,58.735a9.974,9.974,0,1,1-18.223-8.111l26.179-58.819a9.99,9.99,0,0,0-2.11-11.215l-68.309-66.88L139.242,79.417a9.973,9.973,0,1,1-18.169-8.232l20.873-46.079L93.973,47.441a9.973,9.973,0,0,1-13.25-4.833Zm0,0" transform="translate(0 0)" fill="#ffb607"/>
</svg>
