<svg xmlns="http://www.w3.org/2000/svg" width="255.324" height="222.393" viewBox="0 0 255.324 222.393">
  <path id="flammable" d="M248.129,204.788a40.7,40.7,0,0,1-34.189,18.1H41.426A41.368,41.368,0,0,1,6.255,159.778L92.514,20.119a41.332,41.332,0,0,1,70.339,0l63.794,103.289a9.972,9.972,0,1,1-16.969,10.48L145.882,30.6a21.385,21.385,0,0,0-36.4,0L23.226,170.26a21.422,21.422,0,0,0,18.2,32.687H213.94a21.041,21.041,0,0,0,17.678-9.346,21.317,21.317,0,0,0,2.277-19.867,9.973,9.973,0,0,1,18.525-7.393,41.241,41.241,0,0,1-4.291,38.447ZM141.1,82.774c0,11.363,5.854,17.216,13.266,24.628,7.885,7.885,17.7,17.7,17.7,34.744a44.378,44.378,0,0,1-88.756,0c0-11.612,6.163-25.84,18.323-42.287,8.544-11.557,18.2-21.619,22.041-24.782a9.979,9.979,0,0,1,6.343-2.275h1.112a9.972,9.972,0,0,1,9.972,9.972Zm11.02,59.373c0-8.376-4.284-13.069-11.857-20.641-5.168-5.168-11.1-11.1-14.97-19.361-2.419,2.832-5.028,6.064-7.62,9.57-9.163,12.393-14.419,23.487-14.419,30.431a24.445,24.445,0,0,0,23.243,24.369,9.963,9.963,0,0,1-8.781-9.886c0-4.734,4.923-10.848,8.174-14.37a2.013,2.013,0,0,1,3.374.693c1.987,5.591,8.4,7.151,8.4,13.677a9.965,9.965,0,0,1-8.781,9.886,24.444,24.444,0,0,0,23.241-24.369Zm0,0" transform="translate(-0.001 -0.499)" fill="#ffb607"/>
</svg>
