<svg xmlns="http://www.w3.org/2000/svg" width="236.874" height="255.325" viewBox="0 0 236.874 255.325">
  <path id="logistics" d="M140.13,245.351a9.973,9.973,0,0,1-9.974,9.974H39.895A39.939,39.939,0,0,1,0,215.43V39.895A39.939,39.939,0,0,1,39.895,0H178.528a39.939,39.939,0,0,1,39.895,39.895V96.246a9.974,9.974,0,1,1-19.947,0V39.895a19.971,19.971,0,0,0-19.947-19.947H39.895A19.971,19.971,0,0,0,19.947,39.895V215.43a19.971,19.971,0,0,0,19.947,19.947h90.261A9.973,9.973,0,0,1,140.13,245.351ZM60.379,129.657c0-5.509-5-9.974-10.511-9.974a9.974,9.974,0,1,0,0,19.947C55.377,139.631,60.379,135.166,60.379,129.657Zm39.357,0a9.974,9.974,0,1,0-9.974,9.974A9.973,9.973,0,0,0,99.736,129.657Zm-39.4,37.9c0-5.509-4.963-9.974-10.472-9.974a9.974,9.974,0,0,0,0,19.947C55.377,177.531,60.34,173.066,60.34,167.557Zm39.4,0a9.974,9.974,0,1,0-9.974,9.974A9.973,9.973,0,0,0,99.736,167.557ZM49.868,195.483a9.974,9.974,0,1,0,9.974,9.974A9.973,9.973,0,0,0,49.868,195.483Zm39.4,0a9.974,9.974,0,1,0,9.974,9.974A9.973,9.973,0,0,0,89.264,195.483Zm79.29-95.747H49.868a9.973,9.973,0,0,1-9.974-9.974V49.868a9.973,9.973,0,0,1,9.974-9.974H168.554a9.973,9.973,0,0,1,9.974,9.974V89.763A9.973,9.973,0,0,1,168.554,99.736Zm-9.974-39.895H59.842V79.789h98.739Zm78.293,115.7C236.85,198.9,223.09,214,209.781,228.593c-6.29,6.9-12.794,14.035-17.873,22.082a9.973,9.973,0,0,1-8.435,4.65h-2.91a9.973,9.973,0,0,1-8.435-4.65c-5.078-8.047-11.583-15.183-17.873-22.082-13.309-14.6-27.069-29.693-27.092-53.026a54.855,54.855,0,1,1,109.71-.021Zm-19.947,0a34.908,34.908,0,1,0-69.815.021c.016,15.6,9.668,26.181,21.885,39.585,4.36,4.782,8.813,9.666,13.022,15.033,4.21-5.367,8.663-10.25,13.022-15.033C207.259,201.75,216.911,191.165,216.926,175.548Zm-19.449-.012a15.459,15.459,0,1,1-15.459-15.459A15.476,15.476,0,0,1,197.478,175.536Zm0,0" fill="#ffb607"/>
</svg>
