<svg xmlns="http://www.w3.org/2000/svg" width="512" height="511.998" viewBox="0 0 512 511.998">
  <g id="phone" transform="translate(0 -0.001)">
    <g id="Group_8" data-name="Group 8">
      <path id="Path_178" data-name="Path 178" d="M511.95,412.553a75.736,75.736,0,0,0-23.229-52.042c-27.931-26.933-51.333-42.481-73.647-48.929-30.745-8.886-59.225-.806-84.641,24.016l-.114.113-27.04,26.838c-16.9-9.526-49.759-30.442-85.261-65.944l-2.632-2.63c-35.508-35.507-56.423-68.373-65.94-85.253l26.84-27.041.114-.115c24.821-25.414,32.9-53.892,24.016-84.641-6.449-22.313-22-45.715-48.93-73.646A76.106,76.106,0,0,0,45.865,19.473l-.574.516q-.4.359-.78.739C15.152,50.087-.238,91.188,0,139.589c.411,82.222,45.6,176.25,120.879,251.528a487.461,487.461,0,0,0,47.95,41.755,20,20,0,0,0,24.338-31.743,447.838,447.838,0,0,1-44-38.294C81.17,294.839,40.361,211.309,40,139.39,39.817,102.114,51.03,71,72.433,49.375l.153-.138a35.977,35.977,0,0,1,50.108,1.808c51.779,53.7,48.03,79.049,25.15,102.511L110.77,190.908a20,20,0,0,0-4.076,22.226c.941,2.114,23.71,52.427,80.415,109.132l2.633,2.629c56.7,56.7,107.012,79.467,109.126,80.408a20,20,0,0,0,22.225-4.075l37.353-37.075c23.465-22.881,48.816-26.628,102.511,25.151a35.976,35.976,0,0,1,1.811,50.105l-.142.157C441.177,460.795,410.395,472,373.525,472c-.3,0-.608,0-.913,0-29.471-.147-63.6-8.226-98.689-23.362a20,20,0,0,0-15.842,36.729c40.562,17.5,79.028,26.456,114.332,26.633l1.122,0c47.914,0,88.607-15.379,117.739-44.51.253-.254.5-.513.738-.78l.519-.577A75.733,75.733,0,0,0,511.95,412.553Z" fill="#fff"/>
    </g>
  </g>
</svg>
