<svg xmlns="http://www.w3.org/2000/svg" width="512.001" height="512.001" viewBox="0 0 512.001 512.001">
  <path id="private" d="M254.984,101c-38.6,0-70,30.832-70,68.734V197.5A50.068,50.068,0,0,0,142,247V361a20,20,0,0,0,20,20H348a20,20,0,0,0,20-20V247a50.072,50.072,0,0,0-43.016-49.5V169.734c0-37.9-31.4-68.734-70-68.734Zm0,40c16.539,0,30,12.891,30,28.734V197h-60V169.734c0-15.844,13.457-28.734,30-28.734ZM328,247v94H182V247a10.009,10.009,0,0,1,10-10H318A10.009,10.009,0,0,1,328,247Zm-53,42a20,20,0,1,1-20-20A20,20,0,0,1,275,289Zm237-33a255,255,0,0,1-43.375,142.117,20,20,0,1,1-33.254-22.23A215.117,215.117,0,0,0,472,256c0-119.1-96.9-216-216-216S40,136.9,40,256s96.9,216,216,216a215.622,215.622,0,0,0,111.738-31.105A20,20,0,1,1,388.46,475.1,256.041,256.041,0,1,1,512,256Zm0,0" transform="translate(0.001 0.002)" fill="#fff"/>
</svg>
