<svg xmlns="http://www.w3.org/2000/svg" width="255.325" height="255.325" viewBox="0 0 255.325 255.325">
  <path id="rain" d="M239.739,107a9.975,9.975,0,0,0-7.334,12.048,103.642,103.642,0,0,1,2.123,11.538,121.133,121.133,0,0,0-26.079-2.924c-9.284,0-20.329,2.77-28.8,5.429-2.39-44.591-15.917-73.8-27.712-91.132A105.934,105.934,0,0,1,214.776,81.8a9.974,9.974,0,0,0,15.936-12,125.857,125.857,0,0,0-44.459-36.786,131.805,131.805,0,0,0-48.618-13.18V9.973a9.974,9.974,0,0,0-19.947,0v9.841a128.23,128.23,0,0,0-80.171,35.4A122.4,122.4,0,0,0,0,144.119a9.974,9.974,0,0,0,13.94,9.152,90.536,90.536,0,0,1,31.939-5.661c11.146,0,29.231,6.2,35.512,8.69l.01,0c.056.023.119.047.173.068.08.031.16.055.24.084.2.074.4.148.608.21.142.041.284.072.427.109.162.041.321.086.487.117.271.055.542.094.814.125.039.006.078.014.117.018a9.926,9.926,0,0,0,1.021.057,9.791,9.791,0,0,0,1.993-.208.025.025,0,0,0,.012,0c.319-.066.635-.146.949-.243l.006,0c.279-.088.553-.189.826-.3l.129-.051c.2-.088.407-.181.606-.284a92.792,92.792,0,0,1,27.883-7.782V225.4a9.985,9.985,0,0,1-9.974,9.974,10.227,10.227,0,0,1-9.974-10.207,9.974,9.974,0,0,0-19.947,0,29.921,29.921,0,1,0,59.842.234v-77.19a92.846,92.846,0,0,1,27.858,7.769c.189.1.382.187.575.271.082.035.162.068.243.1.232.094.466.181.7.257.076.023.154.043.23.066.22.064.44.121.662.169.082.018.164.037.247.053.249.047.5.086.75.113.062.008.123.018.185.023.282.027.567.039.851.043.037,0,.074.006.111.006s.045,0,.066,0c.279,0,.555-.016.832-.041l.216-.021c.257-.029.514-.068.769-.117l.257-.053c.243-.055.485-.115.725-.187.084-.025.166-.053.249-.08.242-.08.481-.166.717-.263.027-.012.055-.021.08-.033,5.893-2.443,23.348-8.676,34.487-8.676a99.486,99.486,0,0,1,33.149,5.748,9.973,9.973,0,0,0,13.727-9.239,126.116,126.116,0,0,0-3.538-29.786A9.972,9.972,0,0,0,239.739,107ZM127.662,127.662A112.341,112.341,0,0,0,95.694,132.5c2.084-33.626,11.1-56.635,18.816-70.548a101.558,101.558,0,0,1,13.162-18.734,100.685,100.685,0,0,1,12.514,17.616c7.989,14.043,17.321,37.364,19.443,71.664a112.32,112.32,0,0,0-31.966-4.835ZM20.816,130.452c5.684-44.2,38.671-79.006,82.569-88.485-11.8,17.343-25.339,46.59-27.714,91.239-8.752-2.7-20.243-5.544-29.792-5.544a115.4,115.4,0,0,0-25.063,2.79ZM225.4,36.9c0-5.889,7.6-16.051,11.966-21.4a3.864,3.864,0,0,1,5.988,0c4.365,5.351,11.966,15.514,11.966,21.4a14.96,14.96,0,0,1-29.921,0ZM187.5,14.457c0-3.8,4.751-9.956,7.695-13.4a2.992,2.992,0,0,1,4.558,0c2.943,3.448,7.695,9.6,7.695,13.4a9.974,9.974,0,0,1-19.947,0ZM0,36.9c0-5.889,7.6-16.051,11.966-21.4a3.864,3.864,0,0,1,5.988,0c4.365,5.351,11.966,15.514,11.966,21.4A14.96,14.96,0,0,1,0,36.9ZM47.873,14.457c0-3.8,4.751-9.956,7.695-13.4a2.992,2.992,0,0,1,4.558,0c2.943,3.448,7.694,9.6,7.694,13.4a9.974,9.974,0,1,1-19.947,0Zm0,0" transform="translate(0 0)" fill="#ffb607"/>
</svg>
