<svg id="recycle" xmlns="http://www.w3.org/2000/svg" width="255.325" height="251.241" viewBox="0 0 255.325 251.241">
  <g id="Group_2" data-name="Group 2" transform="translate(0 0)">
    <g id="Group_1" data-name="Group 1">
      <path id="Path_1" data-name="Path 1" d="M88.814,158A29.891,29.891,0,0,0,54.23,133.827l-34.986,5.984A9.952,9.952,0,0,0,22.6,159.43L53.193,154.2,5,231.8a32.243,32.243,0,0,0-.833,33.087A32.691,32.691,0,0,0,33.126,281.83H76.178a9.952,9.952,0,1,0,0-19.9H33.126a13.031,13.031,0,0,1-11.568-6.713A12.478,12.478,0,0,1,21.9,242.3l47.953-77.213,5.854,32.9A9.954,9.954,0,0,0,85.5,206.2a10.078,10.078,0,0,0,1.755-.156A9.953,9.953,0,0,0,95.308,194.5Z" transform="translate(0 -68.903)" fill="#ffb607"/>
      <path id="Path_2" data-name="Path 2" d="M356.91,296.265l-18.571-28.329a9.952,9.952,0,1,0-16.646,10.912L340.281,307.2a12.693,12.693,0,0,1,.6,13.192,12.994,12.994,0,0,1-11.625,6.9H238.227l24.294-23.926a9.952,9.952,0,1,0-13.966-14.182L222.4,314.949a29.741,29.741,0,0,0-.02,42.259l25.3,25.236a9.952,9.952,0,0,0,14.057-14.091l-21.2-21.152h88.723a33.041,33.041,0,0,0,29.153-17.374A32.3,32.3,0,0,0,356.91,296.265Z" transform="translate(-107.071 -134.109)" fill="#ffb607"/>
      <path id="Path_3" data-name="Path 3" d="M194.36,30.2a13.253,13.253,0,0,1,22.245-.309L263,100.274,234.738,94.8a9.952,9.952,0,1,0-3.787,19.54l34.258,6.64.11.021a29.836,29.836,0,0,0,34.722-24.016l6.287-34.415a9.952,9.952,0,0,0-19.58-3.577l-5.886,32.218L233.218,18.932a33.157,33.157,0,0,0-55.73.709l-15.23,23.836a9.952,9.952,0,0,0,16.773,10.717l15.26-23.884Z" transform="translate(-80.558 -4.095)" fill="#ffb607"/>
    </g>
  </g>
</svg>
