<svg xmlns="http://www.w3.org/2000/svg" xmlns:xlink="http://www.w3.org/1999/xlink" width="915.779" height="915.779" viewBox="0 0 915.779 915.779">
  <defs>
    <clipPath id="clip-path">
      <path id="Path_9" data-name="Path 9" d="M0,915.779V0L915.779,915.779Z" transform="translate(135.949 -1736.496) rotate(-90)" fill="#00ebc7"/>
    </clipPath>
  </defs>
  <g id="wave_tri_02" transform="translate(-135.949 2652.275)" clip-path="url(#clip-path)">
    <g id="Group_4" data-name="Group 4" transform="translate(-3160.604 -4422.552)">
      <path id="Path_10" data-name="Path 10" d="M824.112-676.822C734.573-653.708,286.367-575.1,387.991-389.529,447.4-281.066,623.038-216.807,726.817-166.582,877.723-93.55,1042.489-31.015,1177.98,69.461c147.825,109.622,96.176,198.806-54.418,274.2" transform="translate(-373.09 1626.201)" fill="none" stroke="#fff" stroke-miterlimit="10" stroke-width="1"/>
      <path id="Path_11" data-name="Path 11" d="M837.786-679.757c-91.255,23.658-537.939,101.869-446.655,288.4,56.714,115.89,247.163,184.092,354.185,235.99C897.074-81.784,1062.171-18.846,1199.534,80.617c42.07,30.465,106.995,78.017,108.641,136.511,2.283,80.806-103.118,123.616-160.381,151.9" transform="translate(-350.669 1614.877)" fill="none" stroke="#fff" stroke-miterlimit="10" stroke-width="1"/>
      <path id="Path_12" data-name="Path 12" d="M849.576-682.679c-91.647,23.865-556.412,106.451-448.2,302.492,64.059,116.045,248.93,182.092,360.667,236.043C920.5-67.626,1096.375-2.712,1237.156,104.933c158,120.814,88.655,213.691-66.955,289.465" transform="translate(-326.6 1603.605)" fill="none" stroke="#fff" stroke-miterlimit="10" stroke-width="1"/>
      <path id="Path_13" data-name="Path 13" d="M863-685.588c-92.507,24.2-557.52,107.9-458.308,303.582,62.1,122.481,261.955,193.79,376.326,249.1,164.841,79.727,350.45,147.519,495.321,262.2,155.869,123.4,67.6,218.6-82.04,290.485" transform="translate(-304.409 1592.383)" fill="none" stroke="#fff" stroke-miterlimit="10" stroke-width="1"/>
      <path id="Path_14" data-name="Path 14" d="M876.509-688.484c-92.1,24.2-581.8,115.142-460.849,317.79C487.9-249.665,680.854-179.142,800.208-121.642c166.53,80.236,349.435,149.613,497.681,262.2,168.616,128.068,83.71,227.318-79.349,304.632" transform="translate(-282.515 1581.21)" fill="none" stroke="#fff" stroke-miterlimit="10" stroke-width="1"/>
      <path id="Path_15" data-name="Path 15" d="M889.317-691.367C793.743-666.13,307.691-576.1,418.762-372.511c70.523,129.254,276.538,202.3,400.525,262.128,167.263,80.7,350.964,150.2,500.678,262.131,47.4,35.433,112.571,85.186,111.06,151.012C1428.937,393.937,1309.642,439,1242.138,470.6" transform="translate(-260.156 1570.088)" fill="none" stroke="#fff" stroke-miterlimit="10" stroke-width="1"/>
      <path id="Path_16" data-name="Path 16" d="M901.823-694.237C804.515-668.419,320.6-578.845,422.09-374.353,489.493-238.527,711.773-159.889,838.2-99.1,1012.331-15.362,1205.421,56.89,1359.3,176.15c176.052,136.436,75.4,241.659-93.858,319.889" transform="translate(-237.719 1559.016)" fill="none" stroke="#fff" stroke-miterlimit="10" stroke-width="1"/>
      <path id="Path_17" data-name="Path 17" d="M913.023-697.094C808.434-669.206,312.676-575,432.96-363.058,509.719-227.813,724.212-151.421,856.381-87.82,1036-1.368,1241.408,73.111,1397.282,200.59c172.445,141.024,56.307,245.077-109.763,320.875" transform="translate(-214.206 1547.995)" fill="none" stroke="#fff" stroke-miterlimit="10" stroke-width="1"/>
      <path id="Path_18" data-name="Path 18" d="M925.49-699.938C817.686-671.048,303-570.46,444.375-351.67,530.534-218.346,740.505-141.536,875.991-76.5c181.844,87.285,382.856,163.424,543.219,288.386,45.634,35.558,107.669,87,105.876,151.51-2.79,100.372-140.217,150.186-214.2,183.538" transform="translate(-192.183 1537.023)" fill="none" stroke="#fff" stroke-miterlimit="10" stroke-width="1"/>
      <path id="Path_19" data-name="Path 19" d="M937.15-702.769C835.316-675.328,315.214-573.094,447.139-353.459,532.184-211.881,755.016-132.583,895.329-65.18,1077.724,22.435,1279.85,98.776,1441.5,223.1c49.257,37.887,119.569,94.636,114.34,165.366-7.4,100.044-149.922,151.672-222.347,183.938" transform="translate(-169.566 1526.102)" fill="none" stroke="#fff" stroke-miterlimit="10" stroke-width="1"/>
      <path id="Path_20" data-name="Path 20" d="M948.889-705.586c-104.927,28.4-621.529,129.049-498.422,350.3C533.255-206.5,771.353-122.65,914.916-53.859c189.314,90.717,400.421,169.655,566.11,301.429,49.356,39.256,114,95.627,105.569,165.976-11.975,99.921-156.228,151.656-230.411,184.322" transform="translate(-147.252 1515.233)" fill="none" stroke="#fff" stroke-miterlimit="10" stroke-width="1"/>
      <path id="Path_21" data-name="Path 21" d="M958.561-708.391c-115.85,31.533-635.886,134.3-497.4,364.49,89.036,147.975,324.9,230.963,471.8,301.395,194.565,93.3,418.159,174.517,585.443,314.609,191.414,160.3,34.82,274.511-141.567,351.281" transform="translate(-123.079 1504.411)" fill="none" stroke="#fff" stroke-miterlimit="10" stroke-width="1"/>
      <path id="Path_22" data-name="Path 22" d="M970.662-711.182C854.239-679.329,310.815-566.871,473.677-332.444,575.346-186.1,799.547-104.865,953.63-31.146c196.952,94.218,415.9,176.923,587.71,314.556,50.054,40.1,111.993,95.073,106.153,165.976-9.01,109.408-166.386,164.6-247.542,199.518" transform="translate(-101.55 1493.644)" fill="none" stroke="#fff" stroke-miterlimit="10" stroke-width="1"/>
      <path id="Path_23" data-name="Path 23" d="M981.556-713.961C867.68-682.628,322.622-569.743,476.466-334.208,577.474-179.573,815.247-95.568,973.6-19.775c197.9,94.732,416.462,178.026,590.606,314.433,54.524,42.706,123.366,102.991,113.775,179.851-13.8,110.525-173.391,164.705-256.11,199.9" transform="translate(-79.028 1482.924)" fill="none" stroke="#fff" stroke-miterlimit="10" stroke-width="1"/>
      <path id="Path_24" data-name="Path 24" d="M992.386-716.726C876.905-684.78,334.408-572.38,479.633-336,579.006-174.266,831.666-85.776,993.667-8.393c203.807,97.351,434.048,182.547,610.023,327.607,49.021,40.4,111.138,96.082,107.421,165.9-6.343,119.255-181.9,178.852-267.4,214.829" transform="translate(-56.643 1472.256)" fill="none" stroke="#fff" stroke-miterlimit="10" stroke-width="1"/>
      <path id="Path_25" data-name="Path 25" d="M1001.288-719.479C874.285-684.147,329.8-569.565,490.9-324.546c105.071,159.8,357.2,249.076,521.4,327.554,208.906,99.844,451.168,187.985,628.877,340.8,208.563,179.35,8.541,304.245-177.533,381.681" transform="translate(-32.536 1461.635)" fill="none" stroke="#fff" stroke-miterlimit="10" stroke-width="1"/>
      <path id="Path_26" data-name="Path 26" d="M1012.35-722.218C884.671-686.5,318.839-562.279,503.807-313.005c117.755,158.671,357.877,245.56,529.5,327.423,206.122,98.323,433.656,185.449,614.751,327.424,57.309,44.931,135.086,111.031,123.292,193.6C1754.091,656.3,1576.7,713.594,1485.737,751.049" transform="translate(-10.798 1451.07)" fill="none" stroke="#fff" stroke-miterlimit="10" stroke-width="1"/>
      <path id="Path_27" data-name="Path 27" d="M1022.477-724.944C894.6-688.962,330.433-564.562,506.6-314.754c116.985,165.9,371.813,256.869,547.237,340.592,211.738,101.062,450.275,190.843,633.936,340.59,56.3,45.911,129.1,112.528,113.716,194.216-22.842,121.333-200.163,177.507-294.6,215.974" transform="translate(11.682 1440.552)" fill="none" stroke="#fff" stroke-miterlimit="10" stroke-width="1"/>
      <path id="Path_28" data-name="Path 28" d="M1032.6-727.657c-129.43,36.627-691.146,160-522.807,411.15C626.658-142.163,893.645-48.923,1074.6,37.275c218.287,103.992,466.492,195.626,652.8,353.783,55.7,47.286,122.99,113.932,104.142,194.818-28.331,121.586-206.517,177.238-303.5,216.329" transform="translate(33.956 1430.086)" fill="none" stroke="#fff" stroke-miterlimit="10" stroke-width="1"/>
      <path id="Path_29" data-name="Path 29" d="M1040.954-730.357C898.886-689.921,336.6-565.316,521.84-304.984,643.578-133.9,913.022-37.53,1093.992,48.727c222.576,106.086,483.889,201.226,671.135,367,226.75,200.741-21.356,333.735-217.749,412.087" transform="translate(57.818 1419.67)" fill="none" stroke="#fff" stroke-miterlimit="10" stroke-width="1"/>
      <path id="Path_30" data-name="Path 30" d="M1051.115-733.044c-145.268,41.593-724.4,175.125-515.869,439.659,134.9,171.142,389.322,262.727,580.192,353.575C1336.4,165.333,1580.513,259.4,1772.87,413.759c62.463,50.118,137.374,119.873,119.975,208.07-25.794,130.81-221.105,190.822-324.32,231.578" transform="translate(79.675 1409.305)" fill="none" stroke="#fff" stroke-miterlimit="10" stroke-width="1"/>
      <path id="Path_31" data-name="Path 31" d="M1060.482-735.718C914.061-693.542,337.95-559.8,538.022-295.092,672.447-117.242,943.617-20.171,1136.517,71.662c226.045,107.61,482.266,203.621,676.072,366.757,55.888,47.043,124.967,113.266,113.964,194.091-19.067,140.121-231.248,204.934-337.7,246.54" transform="translate(102.128 1398.989)" fill="none" stroke="#fff" stroke-miterlimit="10" stroke-width="1"/>
      <path id="Path_32" data-name="Path 32" d="M1069.573-738.379C922.891-695.873,349.188-561.48,540.9-296.8,674.323-112.63,959.877-10.814,1157.554,83.153c231.053,109.832,499.639,209.314,694.37,379.96,54.695,47.923,119.109,114.558,104.7,194.648-25.261,140.435-238.582,204.67-347.748,246.918" transform="translate(124.671 1388.724)" fill="none" stroke="#fff" stroke-miterlimit="10" stroke-width="1"/>
      <path id="Path_33" data-name="Path 33" d="M1077.061-741.027C919.133-694.985,344.783-558.267,553.394-285.21,694.13-101,975.512-1.351,1177.39,94.654c237.013,112.717,515.645,213.63,712.161,393.191,241,220.2-60.111,365.02-262.28,442.491" transform="translate(148.621 1378.509)" fill="none" stroke="#fff" stroke-miterlimit="10" stroke-width="1"/>
      <path id="Path_34" data-name="Path 34" d="M1086.206-743.662c-161.591,47.4-750.191,193.105-519.045,470.12,151.59,181.66,425.291,281.56,631.967,379.713,234.154,111.2,497.9,211.371,698.893,379.713C1962.1,539.558,2039.595,616.046,2014.9,708.34,1977.19,849.294,1762.462,912.285,1647.278,956" transform="translate(170.752 1368.343)" fill="none" stroke="#fff" stroke-miterlimit="10" stroke-width="1"/>
      <path id="Path_35" data-name="Path 35" d="M1094.929-746.284C933.958-698.769,346.3-553.064,570.02-275.215c152.5,189.394,438.175,291.9,650.808,392.913,239.8,113.932,514.353,216.5,716.959,392.914,63.3,55.116,134.867,131.9,106.489,223.064-43.929,141.13-259.035,203.5-377.454,248.008" transform="translate(193.112 1358.228)" fill="none" stroke="#fff" stroke-miterlimit="10" stroke-width="1"/>
      <path id="Path_36" data-name="Path 36" d="M1103.455-748.892C942.9-701.2,356.586-555.51,573.024-276.9,726.036-79.941,1025.052,26.015,1242.577,129.237c245.078,116.293,530.93,221.43,734.667,406.136,262.056,237.589-76.831,392.224-291.127,471.993" transform="translate(215.482 1348.165)" fill="none" stroke="#fff" stroke-miterlimit="10" stroke-width="1"/>
      <path id="Path_37" data-name="Path 37" d="M1110.665-751.488c-168.052,50.23-760.038,202.382-524.117,486.255C748.5-70.365,1041.139,35.282,1263.406,140.782c250.281,118.821,546.717,226.8,751.883,419.382,256.557,240.817-104.866,396.808-311.218,472.886" transform="translate(238.998 1338.152)" fill="none" stroke="#fff" stroke-miterlimit="10" stroke-width="1"/>
      <path id="Path_38" data-name="Path 38" d="M1118.624-754.07C944.237-701.616,343.89-541.719,600.477-253.509,771.653-61.23,1058.3,44.758,1285.223,152.355c252.273,119.62,544.847,228.488,753.889,419.257,271.077,247.377-101.9,408.813-316.41,487.174" transform="translate(261.583 1328.191)" fill="none" stroke="#fff" stroke-miterlimit="10" stroke-width="1"/>
      <path id="Path_39" data-name="Path 39" d="M1126.66-756.64c-175.415,53.107-772.522,213.012-523.307,501.5,172.4,199.571,471.935,308.94,704.134,419.07,256.845,121.834,561.658,233.526,770.8,432.5,263.284,250.491-127.445,412.255-336.935,488.071" transform="translate(283.921 1318.274)" fill="none" stroke="#fff" stroke-miterlimit="10" stroke-width="1"/>
      <path id="Path_40" data-name="Path 40" d="M1133.179-759.2C944.864-701.809,350.288-539.086,617.433-243.421,796.644-45.089,1092.247,63.605,1328.493,175.547c258.5,122.489,561.6,234.309,773.617,432.314,277.436,259.107-125.018,424-343.675,502.412" transform="translate(307.605 1308.408)" fill="none" stroke="#fff" stroke-miterlimit="10" stroke-width="1"/>
      <path id="Path_41" data-name="Path 41" d="M1140.775-761.74c-186.49,57.2-780.768,220.381-520.553,516.69C801.252-38.912,1109.253,72.585,1350.9,187.138c262.685,124.527,579.023,238.441,790.231,445.57C2409.5,895.9,1989.154,1060.448,1776.5,1136.016" transform="translate(330.044 1298.6)" fill="none" stroke="#fff" stroke-miterlimit="10" stroke-width="1"/>
      <path id="Path_42" data-name="Path 42" d="M1147.771-764.27C955.5-704.913,354.194-533.44,634.51-233.258,824.042-30.293,1127.435,82.462,1372.99,198.76c264.853,125.439,576.217,240.721,792.154,445.432,284.5,269.713-152.765,440.65-371.241,517.6" transform="translate(352.917 1288.84)" fill="none" stroke="#fff" stroke-miterlimit="10" stroke-width="1"/>
      <path id="Path_43" data-name="Path 43" d="M1154.833-766.787C961.048-706.559,365-536.906,637.112-234.853c190.375,211.328,507.557,326.419,758.365,445.24C1665,338.09,1988.119,455.63,2203.93,669.078c276.887,273.85-180.232,444.353-392.631,518.488" transform="translate(375.555 1279.129)" fill="none" stroke="#fff" stroke-miterlimit="10" stroke-width="1"/>
      <path id="Path_44" data-name="Path 44" d="M1160.64-769.291c-203.82,63.769-799.51,239.278-508.921,546.2,197.608,208.723,510.754,324.634,765.257,445.125,270.677,128.145,592.58,246.671,811.157,458.5,290.107,281.137-181.309,456.914-400.778,532.829" transform="translate(399.288 1269.468)" fill="none" stroke="#fff" stroke-miterlimit="10" stroke-width="1"/>
      <path id="Path_45" data-name="Path 45" d="M1167.844-771.782C965.057-707.912,370.095-532.568,654.8-224.662,855-8.145,1179.638,110.29,1440.191,233.691,1715,363.842,2049.681,484.73,2267.337,705.447c281.848,285.818-208.989,460.471-422.614,533.722" transform="translate(421.461 1259.859)" fill="none" stroke="#fff" stroke-miterlimit="10" stroke-width="1"/>
      <path id="Path_46" data-name="Path 46" d="M1174.083-774.26C962.017-707.012,365.728-523.945,669.624-212.8,878.117.655,1198.137,120.147,1462.711,245.365c276.741,130.977,607.324,252.769,828.973,471.6,296.131,292.369-209.135,472.718-430.656,548.015" transform="translate(444.451 1250.3)" fill="none" stroke="#fff" stroke-miterlimit="10" stroke-width="1"/>
      <path id="Path_47" data-name="Path 47" d="M1180.59-776.725C968.021-708.851,375.824-527.542,672.348-214.361,882.123,7.2,1215.834,129.226,1485.808,257.049c280.841,132.965,623.967,257.4,844.638,484.874,287.546,296.413-237.876,476.426-452.926,548.9" transform="translate(467.007 1240.79)" fill="none" stroke="#fff" stroke-miterlimit="10" stroke-width="1"/>
      <path id="Path_48" data-name="Path 48" d="M1186.2-779.177C962.376-707.218,371.858-518.845,687.977-202.531,906.512,16.14,1233.688,138.81,1508.286,268.757c281.6,133.25,624.742,258.084,847.217,484.661,299.754,305.311-238.574,488.436-462.5,563.262" transform="translate(490.309 1231.33)" fill="none" stroke="#fff" stroke-miterlimit="10" stroke-width="1"/>
      <path id="Path_49" data-name="Path 49" d="M1192.6-781.616c-222.387,72-811.73,260.759-501.674,577.555,221.318,226.127,560.307,351.688,840.921,484.52,286.1,135.427,640.093,263.26,862.554,497.929,292.022,308.087-269.047,492.518-485.242,564.149" transform="translate(512.669 1221.922)" fill="none" stroke="#fff" stroke-miterlimit="10" stroke-width="1"/>
      <path id="Path_50" data-name="Path 50" d="M1197.583-784.042c-234.421,76.429-818.4,270.563-491.817,591.9C933.185,31.621,1270.676,158,1554.272,292.2c287.9,136.21,638.252,264.739,864.283,497.78,305.9,315.363-269.851,504.544-494.732,578.431" transform="translate(536.3 1212.562)" fill="none" stroke="#fff" stroke-miterlimit="10" stroke-width="1"/>
      <path id="Path_51" data-name="Path 51" d="M1203.849-786.455C971.677-710.226,387.507-515.173,708.9-193.656c231.234,231.322,579.007,360.15,869.356,497.58,288.871,136.724,638,265.637,866.647,497.574,318.7,323.307-273.272,517.2-505.266,592.8" transform="translate(558.501 1203.252)" fill="none" stroke="#fff" stroke-miterlimit="10" stroke-width="1"/>
      <path id="Path_52" data-name="Path 52" d="M1208.491-788.854c-246.3,81.443-822.627,281.43-483.724,607.09C962.63,46.811,1307.37,176.776,1600.9,315.669c292.2,138.245,655.553,270,881.734,510.842,308.292,328.273-301.691,520.252-528.942,593.684" transform="translate(582.181 1193.999)" fill="none" stroke="#fff" stroke-miterlimit="10" stroke-width="1"/>
      <path id="Path_53" data-name="Path 53" d="M1214.424-791.241C969.813-709.774,394.3-509.689,727.9-183.254,969.117,52.79,1325.148,185.464,1625.11,327.434c296.237,140.211,670.936,275.177,896.395,524.123,299.524,330.74-332.115,523.9-552.565,594.552" transform="translate(604.421 1184.789)" fill="none" stroke="#fff" stroke-miterlimit="10" stroke-width="1"/>
      <path id="Path_54" data-name="Path 54" d="M1218.322-793.615C958.592-706.5,395.178-501.689,742.9-171.271c246.4,234.133,602.131,367.319,904.685,510.49C1945.109,480,2317.924,615.044,2545.6,863.177c311.646,339.652-333.74,535.816-563.563,608.869" transform="translate(628.558 1175.632)" fill="none" stroke="#fff" stroke-miterlimit="10" stroke-width="1"/>
      <path id="Path_55" data-name="Path 55" d="M1224.293-795.975C969.068-709.739,402.026-502.969,746.388-172.749,997.5,68.055,1362.917,204.516,1672.357,351c299.074,141.573,668.187,277.79,900.255,523.744,327.439,347.042-343.073,549.927-575.573,623.231" transform="translate(650.486 1166.526)" fill="none" stroke="#fff" stroke-miterlimit="10" stroke-width="1"/>
      <path id="Path_56" data-name="Path 56" d="M1235.57-798.323c-177.515,60.423-494.612,144-578.263,343.121-48.285,114.939,31.773,219.51,112.763,294.412,257.623,238.257,619.774,375.5,932.677,523.587,301.888,142.881,686.324,282.053,914.641,537.022,315.062,351.883-373.14,553.1-600.152,624.108" transform="translate(666.97 1157.469)" fill="none" stroke="#fff" stroke-miterlimit="10" stroke-width="1"/>
      <path id="Path_57" data-name="Path 57" d="M1233.37-800.657C964.161-708.352,410.717-495.783,765.7-162.24c261.576,245.778,634.538,385.5,954.193,536.855,306.161,144.964,701.253,286.715,928.585,550.314,305.62,354.379-403.117,556.215-624.689,624.963" transform="translate(696.799 1148.464)" fill="none" stroke="#fff" stroke-miterlimit="10" stroke-width="1"/>
      <path id="Path_58" data-name="Path 58" d="M1245.388-802.978c-178.842,61.776-489,146.246-574.96,343.766-52.577,120.84,34.13,230.832,119.6,309.009,266.532,243.748,639.507,384.2,961.514,536.647,307.005,145.348,700.763,287.512,930.093,550.133,317.51,363.61-407.316,568.529-637.2,639.294" transform="translate(712.275 1139.51)" fill="none" stroke="#fff" stroke-miterlimit="10" stroke-width="1"/>
      <path id="Path_59" data-name="Path 59" d="M1250.035-805.286C1070.8-742.91,763.906-658.113,676.9-461.209,623.886-341.234,707.556-230.227,792.83-151.635c271.857,250.523,653.8,393.854,983.237,549.92,308.154,146,699.6,288.793,932.211,549.914,330.86,371.385-415.66,581.868-650.718,653.656" transform="translate(734.992 1130.608)" fill="none" stroke="#fff" stroke-miterlimit="10" stroke-width="1"/>
      <path id="Path_60" data-name="Path 60" d="M1254.62-807.582c-179.156,62.826-502.058,153-576.777,359.105C635.785-332.456,715.08-229.028,795.807-153.057c274.532,258.364,669.638,404.348,1005.02,563.2,312.344,147.937,714.345,293.506,945.857,563.2,321.152,374.118-446.511,584.913-676.227,654.522" transform="translate(757.645 1121.749)" fill="none" stroke="#fff" stroke-miterlimit="10" stroke-width="1"/>
      <path id="Path_61" data-name="Path 61" d="M1259.118-809.864c-180.565,63.8-498.773,153.26-574.843,359.433C639.009-327.742,727.8-218.9,813.931-141.014c282.32,255.305,672.228,402.089,1011.792,563.025,193.089,91.513,387.1,182.76,572.852,288.639,136.705,77.929,285.2,164.346,386.237,287.856,308.9,377.605-477.561,587.977-701.693,655.38" transform="translate(780.255 1112.945)" fill="none" stroke="#fff" stroke-miterlimit="10" stroke-width="1"/>
      <path id="Path_62" data-name="Path 62" d="M1264.171-812.133c-179.254,63.817-515.2,158.557-578.575,374.51-36.443,124.187,60.926,232.886,146.89,308.7,286.958,253.094,677.372,400.938,1018.966,562.811,185.294,87.8,371.128,175.6,550.063,275.944,144.6,81.091,303.135,170.812,410.4,300.361,321.03,387.734-485.94,601.148-715.749,669.713" transform="translate(802.192 1104.193)" fill="none" stroke="#fff" stroke-miterlimit="10" stroke-width="1"/>
      <path id="Path_63" data-name="Path 63" d="M1268.363-814.389C1088.7-749.935,756.314-654.54,691.841-439.544c-37.032,123.5,57.98,233.241,143.6,309.246,292.617,259.754,691.879,410.468,1041.108,576.081,193.007,91.527,386.615,183.1,572.445,288.692,137.47,78.118,286.593,164.964,390.007,287.395,334.526,396.055-496.064,614.581-730.82,684.086" transform="translate(824.858 1095.488)" fill="none" stroke="#fff" stroke-miterlimit="10" stroke-width="1"/>
      <path id="Path_64" data-name="Path 64" d="M1272.495-816.632C1092.507-751.56,763.643-655.827,698.142-441.464c-37.775,123.592,55.1,232.633,140.422,309.779C1134.5,135.9,1546.142,289.012,1901.878,457.687c192.911,91.473,386.3,183.195,572.032,288.727,142.8,81.137,298.185,171.267,403.3,300.646,323.459,398.114-528.47,617.725-757.246,684.952" transform="translate(847.479 1086.835)" fill="none" stroke="#fff" stroke-miterlimit="10" stroke-width="1"/>
      <path id="Path_65" data-name="Path 65" d="M1276.492-818.862C1098.6-754.043,770.528-656.032,704.407-443.38c-40.442,130.08,62.272,244.739,152.922,323.8,303.11,264.361,710.709,418.719,1069.956,589.189,192.828,91.5,386.336,183.1,571.952,288.735C2646.22,842,2810.388,935.462,2915.094,1072.287c307.975,402.432-554.766,619.046-783.643,685.791" transform="translate(870.107 1078.232)" fill="none" stroke="#fff" stroke-miterlimit="10" stroke-width="1"/>
      <path id="Path_66" data-name="Path 66" d="M1280.391-821.078c-178.063,65.386-502.8,164.021-569.709,375.794-43.2,136.767,69.8,256.605,165.22,337.854C1183.831,154.721,1591.374,310,1952.866,481.54c200.459,95.11,401.676,190.441,593.945,301.493,139.633,80.649,294.734,171.36,395.093,300.992,319.276,412.378-562.169,631.506-799.271,700.137" transform="translate(892.706 1069.683)" fill="none" stroke="#fff" stroke-miterlimit="10" stroke-width="1"/>
      <path id="Path_67" data-name="Path 67" d="M1284.156-823.282c-178.969,66.241-499.29,164-567.242,376.1-43.711,136.428,66.742,256.5,162.105,338.413,313.146,268.988,730.722,427.126,1099.493,602.257,200.344,95.145,401.239,190.675,593.519,301.525,140.888,81.225,294.455,171.678,397.37,300.729,334.617,419.571-579.515,646.588-815.905,714.524" transform="translate(915.356 1061.18)" fill="none" stroke="#fff" stroke-miterlimit="10" stroke-width="1"/>
      <path id="Path_68" data-name="Path 68" d="M1287.5-825.473c-178.777,66.7-514.446,170.335-568.457,391.155C686.782-302.443,790.324-189.89,881.939-110.1c317.5,276.5,746.219,437.034,1122.1,615.551,200.282,95.11,401.133,190.7,593.332,301.536,145.324,83.809,306.507,178,409.663,314.015,321.1,423.391-609.383,648.669-843.279,715.366" transform="translate(938.3 1052.727)" fill="none" stroke="#fff" stroke-miterlimit="10" stroke-width="1"/>
      <path id="Path_69" data-name="Path 69" d="M1291.06-827.651C1112.091-760.341,780-656.384,725.2-436.182c-34.522,138.7,79.258,256.533,176.193,338.243,324.266,273.3,749.464,435.156,1128.6,615.356,207.761,98.749,416.406,197.866,615,314.3,142.18,83.356,301.549,178.1,399.693,314.556,306.643,426.391-639.128,650.68-870.642,716.21" transform="translate(960.911 1044.326)" fill="none" stroke="#fff" stroke-miterlimit="10" stroke-width="1"/>
      <path id="Path_70" data-name="Path 70" d="M1295.1-829.815c-180.15,68.266-520.422,175.756-566.333,402.7-27.8,137.379,88.562,254.463,184.2,334.569,329.31,275.806,759.6,439.318,1143.683,621.95,205.731,97.827,412.276,196.1,609.125,311.1,142.87,83.468,300.037,177.07,401.935,310.85,333.33,437.652-645.291,670.467-883.119,737.27" transform="translate(982.94 1035.977)" fill="none" stroke="#fff" stroke-miterlimit="10" stroke-width="1"/>
      <path id="Path_71" data-name="Path 71" d="M1298.42-831.967c-180.283,68.879-516.972,176.729-563.595,403.056C706.562-291.745,821.242-174.456,916.4-93.777,1250.3,189.3,1691.76,355.384,2082.883,541.405c205.672,97.809,411.73,196.422,608.624,311.172,146.946,85.634,312.19,183.36,413.883,324.024,318.85,441.015-675.148,672.374-911.138,738.184" transform="translate(1005.587 1027.675)" fill="none" stroke="#fff" stroke-miterlimit="10" stroke-width="1"/>
      <path id="Path_72" data-name="Path 72" d="M1301.683-834.1C1123.638-765.522,788.036-655.5,740.9-430.7,710.7-286.658,835.83-164.265,936.271-81.652,1276.56,198.256,1715.025,365.764,2109.212,553.4c205.584,97.857,411.568,196.547,608.459,311.2,151.382,88.135,323.912,189.4,425.123,337.233,304.189,444.361-705.689,674.45-939.173,739.087" transform="translate(1028.183 1019.434)" fill="none" stroke="#fff" stroke-miterlimit="10" stroke-width="1"/>
      <path id="Path_73" data-name="Path 73" d="M1304.84-836.23c-178.969,69.5-510.069,179.073-557.872,403.741C714.875-281.643,850.6-154.334,955.991-69.457c344.855,277.695,783.341,446.164,1179.742,634.893,212.913,101.368,426.572,203.541,629.6,323.883,144.293,85.519,307.459,183.6,404.98,324.413,314.721,454.413-718.947,687.76-957.662,753.375" transform="translate(1050.789 1011.23)" fill="none" stroke="#fff" stroke-miterlimit="10" stroke-width="1"/>
      <path id="Path_74" data-name="Path 74" d="M1307.868-838.343C1128.9-768.263,801.273-658.116,753-434.261,720.5-283.471,854.4-156.175,959.475-70.643,1309.416,214.2,1758.625,385.11,2162.3,577.477c205.331,97.846,411.115,196.6,607.71,311.305,152.472,88.961,323.931,190.169,428.485,336.815,329.472,462.051-736.08,701.909-977.131,767.692" transform="translate(1073.421 1003.078)" fill="none" stroke="#fff" stroke-miterlimit="10" stroke-width="1"/>
      <path id="Path_75" data-name="Path 75" d="M1310.788-840.442C1131.84-769.781,807.7-659.28,759.014-436.025,726.2-285.554,858.387-157.622,963.053-71.836c355.77,291.609,814.579,465.253,1226,661.353C2401.737,690.9,2615.007,793.279,2817.85,913.5c149.554,88.625,318.669,190.121,418.042,337.382,313.754,464.949-766.011,703.532-1006.152,768.606" transform="translate(1096.061 994.978)" fill="none" stroke="#fff" stroke-miterlimit="10" stroke-width="1"/>
      <path id="Path_76" data-name="Path 76" d="M1313.277-842.528c-180.051,71.7-516.029,187.7-550.865,419.392C739.5-270.765,876.026-145.121,983.239-59.637,1345,228.8,1801.37,403.98,2215.538,601.588c219.9,104.914,440.695,210.846,649.609,336.663,146.07,87.97,313.618,190.564,407.468,337.95,298.118,468.184-795.988,705.151-1035.159,769.5" transform="translate(1119.036 986.933)" fill="none" stroke="#fff" stroke-miterlimit="10" stroke-width="1"/>
      <path id="Path_77" data-name="Path 77" d="M1316.452-844.6c-178.977,71.876-529.059,194.722-549.957,434.4-13.35,153.066,129.025,278.281,237.589,362.809C1370.957,238.253,1826.5,414.883,2242.975,613.663c212.41,101.384,425.269,203.972,627.9,324.072,150.618,89.273,318.616,190.817,421.138,336.985,339.129,483.526-802.219,731.971-1046.4,797.211" transform="translate(1141.235 978.937)" fill="none" stroke="#fff" stroke-miterlimit="10" stroke-width="1"/>
      <path id="Path_78" data-name="Path 78" d="M1319.1-846.661C1139.7-774,793.845-650.865,772.422-411.907c-13.739,153.188,126.971,277.99,235.332,363.371,371.893,293.016,838.455,471.785,1262.307,674.3,219.6,104.919,440.034,210.976,648.664,336.748,147.468,88.9,313.41,190.923,410.7,337.534,323.017,486.771-832.91,733.525-1076.4,798.125" transform="translate(1163.862 970.989)" fill="none" stroke="#fff" stroke-miterlimit="10" stroke-width="1"/>
      <path id="Path_79" data-name="Path 79" d="M1321.673-848.708c-179.39,73.264-517.326,195.466-542.953,431.325-17.138,157.7,130.247,287.565,241.508,374.312,377.941,294.716,847.9,475.723,1277.074,680.913,217.642,104.056,435.881,209.45,642.93,333.666,154.605,92.755,335.008,201.708,430.417,360.52,292.273,486.494-867.593,728.377-1110.546,792.378" transform="translate(1186.486 963.09)" fill="none" stroke="#fff" stroke-miterlimit="10" stroke-width="1"/>
      <path id="Path_80" data-name="Path 80" d="M1324.167-850.742c-179.2,73.81-513.509,196.18-539.519,431.7C766.479-254.517,924.558-119.7,1041.109-30.824c382.9,291.961,852.164,474.431,1283.607,680.793,224.763,107.509,450.254,216.451,663.194,346.278,144.552,88.13,306.976,190.359,402.6,334.521,332.914,501.925-877.9,755.634-1123.654,819.918" transform="translate(1209.099 955.243)" fill="none" stroke="#fff" stroke-miterlimit="10" stroke-width="1"/>
      <path id="Path_81" data-name="Path 81" d="M1326.567-852.763C1147.47-778.335,816.833-655.584,790.573-420.7,772.113-255.624,928.083-122,1045.012-31.876,1433.178,267.308,1913.342,451.97,2352.186,662.1c217.341,104.064,435.167,209.684,641.944,333.817,155.392,93.285,334.84,202.539,433.489,360.166,315.794,504.613-907.715,756.809-1154.334,820.884" transform="translate(1231.715 947.447)" fill="none" stroke="#fff" stroke-miterlimit="10" stroke-width="1"/>
      <path id="Path_82" data-name="Path 82" d="M1328.874-854.771c-179.489,75.243-505.881,197.642-532.4,432.426-18.62,164.836,136.287,299.072,252.518,389.421,393.74,306.054,884.467,493.325,1330.85,707.165C2604.3,781.768,2829.31,890.924,3041.985,1020.66c153,93.328,329.041,202.121,422.406,360.755,86.388,146.776,30.153,285.005-93.44,389.421-292.345,246.966-733.6,340.049-1091.612,432.42" transform="translate(1254.344 939.701)" fill="none" stroke="#fff" stroke-miterlimit="10" stroke-width="1"/>
      <path id="Path_83" data-name="Path 83" d="M1330.7-856.766c-180.951,76.53-516.914,204.873-529.462,447.329-8.584,165.8,150.676,299.058,269.023,388.755,399.539,302.815,887.864,491.729,1336.9,707.08,231.368,110.962,463.75,223.642,682.075,359.039,148.707,92.227,324.008,203.194,411.2,361.335,83.54,151.521,15.692,287.283-108.814,390.012-298.414,246.226-744.343,339.846-1106.953,432.777" transform="translate(1277.367 932.004)" fill="none" stroke="#fff" stroke-miterlimit="10" stroke-width="1"/>
      <path id="Path_84" data-name="Path 84" d="M1333.185-858.747C1151.128-781.061,804.48-646.492,806.7-396.483,808.165-230.462,971.591-97.9,1092.192-8.389c404.417,300.172,891.852,490.36,1343.22,706.952,224.1,107.533,448.642,216.923,661,346.56,153.066,93.44,329.241,203.637,425.2,360.4,92.824,151.649,37.759,293.336-91.551,402.662C3125.233,2065.9,2663.88,2160.8,2290.389,2255.876" transform="translate(1299.658 924.362)" fill="none" stroke="#fff" stroke-miterlimit="10" stroke-width="1"/>
      <path id="Path_85" data-name="Path 85" d="M1335.26-860.716c-181.98,78.358-524.6,213.337-522.705,462.642C813.833-231.4,974.929-100.342,1096.286-9.4c409.929,307.195,908.284,499.732,1367.09,720.143,231.014,110.983,462.839,223.873,680.859,359.175,150.956,93.682,323.22,202.875,414.12,360.971,83.5,145.244,30.859,282.562-89.379,388.677-306.273,270.3-793.278,366.493-1173.532,462.65" transform="translate(1322.277 916.767)" fill="none" stroke="#fff" stroke-miterlimit="10" stroke-width="1"/>
      <path id="Path_86" data-name="Path 86" d="M1337.252-862.672c-182.494,79.266-516.714,212.42-518.832,459.28C816.947-231.416,985.552-95.9,1109.542-3.821,1525.383,305,2027.518,499.836,2491.517,722.937c229.082,110.152,458.766,222.3,675.182,356.13,156.385,96.708,344.7,214.775,431.6,383.829,77.367,150.5,7.558,285.514-112.659,386.378-317.8,266.628-797.176,361.764-1185.524,459.28" transform="translate(1344.897 909.22)" fill="none" stroke="#fff" stroke-miterlimit="10" stroke-width="1"/>
      <path id="Path_87" data-name="Path 87" d="M1339.179-864.614C1156.638-784.6,826.515-650.976,824.291-404.945,822.679-226.41,1002.9-85.551,1131.608,8.458c419.947,306.723,922.2,502.458,1388.207,726.691,235.862,113.493,472.771,229.082,694.542,368.678,148.34,93.368,316.279,202.073,405.619,358.008,92,160.592,19.427,305.271-113.639,413.4-326.7,265.477-806.354,361.016-1201.871,459.674" transform="translate(1367.53 901.728)" fill="none" stroke="#fff" stroke-miterlimit="10" stroke-width="1"/>
      <path id="Path_88" data-name="Path 88" d="M1341.017-866.544C1158.629-785.86,832.431-651.627,830.151-406.486,828.515-228.417,1007-87.164,1135.957,7.544c426.325,313.122,938.419,511.591,1412.2,739.833C2776.874,857.558,3006,969.9,3222.071,1103.69c157.371,97.433,343.834,214.754,434.325,383.512,87.709,163.578,4.969,307.9-129.744,414.029-335.166,264.067-815.972,360.39-1218.207,460.058" transform="translate(1390.147 894.283)" fill="none" stroke="#fff" stroke-miterlimit="10" stroke-width="1"/>
      <path id="Path_89" data-name="Path 89" d="M1342.8-868.46c-182.15,81.326-504.517,216.126-506.782,460.436C834.357-229.148,1010.249-89.48,1140.377,6.624,1573.271,326.3,2094.831,527.3,2576.722,759.6c235.449,113.493,471.732,229.447,693.211,368.862,154.067,96.991,338.426,215.734,422.56,384.119,82.879,165.891-10.88,311.439-145.873,414.645-343.286,262.493-825.959,359.859-1234.53,460.436" transform="translate(1412.768 886.891)" fill="none" stroke="#fff" stroke-miterlimit="10" stroke-width="1"/>
      <path id="Path_90" data-name="Path 90" d="M1344.143-870.363c-184.8,83.279-513.57,223.788-501.874,475.284,8.355,179.633,188.163,318.2,320.574,414.008,437.416,316.479,958.5,519.508,1442.075,752.927,242.2,116.9,485.429,236.2,712.225,381.418,151.31,96.871,332.392,215.6,410.718,384.713,78.795,170.162-26.324,314.5-162.033,415.258-351.1,260.673-836.259,359.423-1250.843,460.809" transform="translate(1435.764 879.549)" fill="none" stroke="#fff" stroke-miterlimit="10" stroke-width="1"/>
      <path id="Path_91" data-name="Path 91" d="M1346.153-872.254c-185.425,84.328-520.342,230.48-497.284,486.393,16.083,178.5,195.016,314.814,327.8,410.465,442.754,318.951,968.76,523.419,1457.373,759.505,240.24,116.079,481.321,234.663,706.531,378.362,151.574,96.708,331.081,214.871,413.718,381.141,81.145,163.261-4.835,306.6-135.16,410.465-354.353,282.4-873.621,382.6-1300.9,486.391" transform="translate(1458.027 872.254)" fill="none" stroke="#fff" stroke-miterlimit="10" stroke-width="1"/>
    </g>
  </g>
</svg>
