<svg xmlns="http://www.w3.org/2000/svg" xmlns:xlink="http://www.w3.org/1999/xlink" width="1839.787" height="608.468" viewBox="0 0 1839.787 608.468">
  <defs>
    <clipPath id="clip-path">
      <path id="Path_261" data-name="Path 261" d="M-150.275-1689l-608.468,608.468L-1990.062-1689Z" transform="translate(1832 -791)" fill="#00ebc7"/>
    </clipPath>
  </defs>
  <g id="wave_tri_03" transform="translate(158.062 2479.997)" clip-path="url(#clip-path)">
    <g id="Group_15" data-name="Group 15" transform="translate(-2279.841 -4362.003)">
      <path id="Path_179" data-name="Path 179" d="M753.856-676.822c-75.593,19.513-453.981,85.878-368.185,242.542,50.149,91.567,198.434,145.816,286.047,188.218,127.4,61.657,266.5,114.451,380.886,199.271,124.8,92.547,81.187,167.84-45.941,231.489" transform="translate(-373.09 1478.318)" fill="none" stroke="#fff" stroke-miterlimit="10" stroke-width="1"/>
      <path id="Path_180" data-name="Path 180" d="M766.307-679.757c-77.04,19.973-454.145,86-377.08,243.477,47.881,97.837,208.663,155.417,299.015,199.23,128.124,62.12,267.5,115.255,383.466,199.226,35.516,25.718,90.328,65.864,91.718,115.246,1.927,68.219-87.055,104.366-135.4,128.235" transform="translate(-355.069 1469.216)" fill="none" stroke="#fff" stroke-miterlimit="10" stroke-width="1"/>
      <path id="Path_181" data-name="Path 181" d="M777.232-682.679C699.856-662.53,307.49-592.81,398.848-427.3,452.93-329.336,609-273.577,703.333-228.03c133.771,64.6,282.254,119.4,401.105,210.278,133.39,102,74.846,180.405-56.526,244.375" transform="translate(-335.72 1460.155)" fill="none" stroke="#fff" stroke-miterlimit="10" stroke-width="1"/>
      <path id="Path_182" data-name="Path 182" d="M789.465-685.588c-78.1,20.428-470.677,91.1-386.919,256.293,52.429,103.4,221.151,163.6,317.708,210.3C859.419-151.684,1016.115-94.452,1138.42,2.368c131.589,104.173,57.067,184.548-69.26,245.236" transform="translate(-317.88 1451.133)" fill="none" stroke="#fff" stroke-miterlimit="10" stroke-width="1"/>
      <path id="Path_183" data-name="Path 183" d="M801.75-688.484C723.993-668.052,310.572-591.279,412.686-420.2c60.984,102.176,223.886,161.7,324.647,210.258,140.592,67.743,295,126.311,420.159,221.364,142.351,108.119,70.671,191.909-66.988,257.179" transform="translate(-300.284 1442.153)" fill="none" stroke="#fff" stroke-miterlimit="10" stroke-width="1"/>
      <path id="Path_184" data-name="Path 184" d="M813.465-691.367c-80.686,21.305-491.027,97.316-397.258,269.187,59.536,109.119,233.462,170.792,338.136,221.3,141.211,68.141,296.3,126.808,422.689,221.3,40.015,29.914,95.036,71.918,93.76,127.489-1.764,76.974-102.475,115.021-159.473,141.7" transform="translate(-282.311 1433.212)" fill="none" stroke="#fff" stroke-miterlimit="10" stroke-width="1"/>
      <path id="Path_185" data-name="Path 185" d="M824.928-694.237c-82.15,21.8-490.691,97.419-405.005,270.057,56.912,114.668,244.56,181.05,351.292,232.375,147.01,70.7,310.023,131.692,439.943,232.375,148.63,115.185,63.662,204.016-79.239,270.061" transform="translate(-264.274 1424.312)" fill="none" stroke="#fff" stroke-miterlimit="10" stroke-width="1"/>
      <path id="Path_186" data-name="Path 186" d="M835.334-697.094c-88.3,23.545-506.833,103.078-405.284,282,64.8,114.18,245.884,178.671,357.464,232.375,151.64,72.984,325.053,135.863,456.647,243.485,145.583,119.057,47.536,206.9-92.662,270.894" transform="translate(-245.373 1415.452)" fill="none" stroke="#fff" stroke-miterlimit="10" stroke-width="1"/>
      <path id="Path_187" data-name="Path 187" d="M846.749-699.938c-91.013,24.389-525.53,109.312-406.174,294.02,72.738,112.556,250,177.4,364.383,232.305,153.518,73.69,323.22,137.967,458.6,243.465,38.526,30.02,90.9,73.452,89.384,127.911-2.354,84.738-118.376,126.791-180.828,154.95" transform="translate(-227.67 1406.632)" fill="none" stroke="#fff" stroke-miterlimit="10" stroke-width="1"/>
      <path id="Path_188" data-name="Path 188" d="M857.506-702.769c-85.973,23.159-525.058,109.476-413.683,294.9C515.621-288.348,703.741-221.4,822.2-164.5,976.181-90.529,1146.833-26.079,1283.291,78.881c41.586,31.985,100.946,79.895,96.529,139.607-6.246,84.459-126.57,128.046-187.714,155.286" transform="translate(-209.488 1397.853)" fill="none" stroke="#fff" stroke-miterlimit="10" stroke-width="1"/>
      <path id="Path_189" data-name="Path 189" d="M868.313-705.586C779.741-681.607,343.6-596.639,447.535-409.848c69.892,125.614,270.9,196.4,392.1,254.476C999.464-78.787,1177.683-12.143,1317.566,99.1c41.667,33.141,96.242,80.731,89.126,140.132-10.109,84.357-131.893,128.034-194.521,155.61" transform="translate(-191.547 1389.117)" fill="none" stroke="#fff" stroke-miterlimit="10" stroke-width="1"/>
      <path id="Path_190" data-name="Path 190" d="M877.458-708.391c-97.8,26.62-536.836,113.384-419.917,307.714C532.707-275.752,731.83-205.692,855.849-146.23,1020.109-67.467,1208.872,1.1,1350.1,119.373c161.6,135.33,29.4,231.752-119.516,296.562" transform="translate(-172.119 1380.418)" fill="none" stroke="#fff" stroke-miterlimit="10" stroke-width="1"/>
      <path id="Path_191" data-name="Path 191" d="M888.544-711.182c-98.28,26.891-557.064,121.833-419.572,319.742C554.8-267.889,744.081-199.309,874.165-137.074c166.273,79.542,351.116,149.364,496.158,265.558,42.258,33.851,94.548,80.263,89.618,140.112-7.608,92.366-140.469,138.959-208.982,168.438" transform="translate(-154.813 1371.763)" fill="none" stroke="#fff" stroke-miterlimit="10" stroke-width="1"/>
      <path id="Path_192" data-name="Path 192" d="M898.65-713.961c-96.139,26.453-556.292,121.755-426.413,320.6,85.275,130.548,286.01,201.469,419.683,265.456C1059-47.93,1243.512,22.388,1390.53,137.548c46.031,36.053,104.149,86.949,96.053,151.837-11.647,93.309-146.383,139.05-216.217,168.762" transform="translate(-136.707 1363.145)" fill="none" stroke="#fff" stroke-miterlimit="10" stroke-width="1"/>
      <path id="Path_193" data-name="Path 193" d="M908.7-716.726C811.2-689.757,353.211-594.864,475.815-395.3c83.889,136.539,297.2,211.246,433.964,276.573,172.059,82.187,366.438,154.113,515,276.577,41.377,34.105,93.826,81.117,90.689,140.058-5.356,100.679-153.563,150.992-225.748,181.365" transform="translate(-118.713 1354.57)" fill="none" stroke="#fff" stroke-miterlimit="10" stroke-width="1"/>
      <path id="Path_194" data-name="Path 194" d="M917.186-719.479C809.966-689.651,350.3-592.918,486.3-386.064c88.7,134.907,301.562,210.278,440.18,276.533,176.366,84.291,380.891,158.7,530.919,287.716,176.075,151.414,7.21,256.847-149.88,322.227" transform="translate(-99.337 1346.032)" fill="none" stroke="#fff" stroke-miterlimit="10" stroke-width="1"/>
      <path id="Path_195" data-name="Path 195" d="M927.4-722.218C819.612-692.062,341.918-587.192,498.074-376.753,597.482-242.8,800.206-169.444,945.1-100.328,1119.115-17.321,1311.2,56.234,1464.092,176.1c48.381,37.932,114.045,93.736,104.087,163.443-14.576,102.028-164.333,150.4-241.127,182.021" transform="translate(-81.862 1337.538)" fill="none" stroke="#fff" stroke-miterlimit="10" stroke-width="1"/>
      <path id="Path_196" data-name="Path 196" d="M936.86-724.944c-107.967,30.377-584.246,135.4-435.522,346.3,98.764,140.054,313.9,216.856,461.995,287.54C1142.089-5.8,1343.468,70,1498.521,196.429c47.532,38.76,108.988,95,96,163.964-19.284,102.434-168.984,149.856-248.71,182.333" transform="translate(-63.792 1329.085)" fill="none" stroke="#fff" stroke-miterlimit="10" stroke-width="1"/>
      <path id="Path_197" data-name="Path 197" d="M946.308-727.657c-109.267,30.922-583.487,135.083-441.37,347.1C603.6-233.366,828.995-154.648,981.75-81.878,1166.035,5.916,1375.588,83.276,1532.867,216.8c47.024,39.921,103.833,96.184,87.92,164.473-23.918,102.648-174.348,149.63-256.223,182.636" transform="translate(-45.885 1320.671)" fill="none" stroke="#fff" stroke-miterlimit="10" stroke-width="1"/>
      <path id="Path_198" data-name="Path 198" d="M954.321-730.357C834.383-696.219,359.679-591.025,516.068-371.244,618.843-226.81,846.317-145.451,999.1-72.631,1187,16.93,1407.613,97.251,1565.692,237.2c191.43,169.472-18.029,281.749-183.83,347.9" transform="translate(-26.704 1312.298)" fill="none" stroke="#fff" stroke-miterlimit="10" stroke-width="1"/>
      <path id="Path_199" data-name="Path 199" d="M963.781-733.044C841.14-697.93,352.221-585.2,528.267-361.869c113.9,144.483,328.67,221.811,489.821,298.5,186.545,88.765,392.632,168.18,555.025,298.494,52.733,42.311,115.977,101.2,101.286,175.669-21.777,110.423-186.664,161.1-273.8,195.506" transform="translate(-9.137 1303.965)" fill="none" stroke="#fff" stroke-miterlimit="10" stroke-width="1"/>
      <path id="Path_200" data-name="Path 200" d="M972.6-735.718C848.984-700.112,362.612-587.2,531.518-363.727,645.005-213.58,873.935-131.631,1036.788-54.1c190.835,90.849,407.146,171.9,570.761,309.625,47.184,39.716,105.5,95.622,96.213,163.857-16.1,118.294-195.235,173.011-285.1,208.138" transform="translate(8.914 1295.673)" fill="none" stroke="#fff" stroke-miterlimit="10" stroke-width="1"/>
      <path id="Path_201" data-name="Path 201" d="M981.182-738.379C857.348-702.494,373-589.027,534.862-365.589,647.5-210.1,888.574-124.145,1055.458-44.817c195.063,92.723,421.812,176.71,586.21,320.776,46.175,40.458,100.556,96.709,88.4,164.329-21.326,118.56-201.42,172.79-293.581,208.457" transform="translate(27.034 1287.421)" fill="none" stroke="#fff" stroke-miterlimit="10" stroke-width="1"/>
      <path id="Path_202" data-name="Path 202" d="M988.474-741.027c-133.328,38.871-618.212,154.285-442.1,384.815,118.814,155.519,356.365,239.642,526.8,320.693C1273.27,59.641,1508.5,144.834,1674.4,296.425c203.458,185.905-50.748,308.161-221.426,373.566" transform="translate(46.294 1279.209)" fill="none" stroke="#fff" stroke-miterlimit="10" stroke-width="1"/>
      <path id="Path_203" data-name="Path 203" d="M997.085-743.662c-136.421,40.019-633.337,163.025-438.2,396.889,127.968,153.363,359.044,237.7,533.527,320.567C1290.1,67.673,1512.76,152.238,1682.445,294.36c54.1,45.314,119.519,109.886,98.674,187.808-31.837,119-213.116,172.179-310.359,209.081" transform="translate(64.078 1271.037)" fill="none" stroke="#fff" stroke-miterlimit="10" stroke-width="1"/>
      <path id="Path_204" data-name="Path 204" d="M1005.352-746.284c-135.9,40.113-632.02,163.123-443.146,397.693C690.95-188.7,932.131-102.17,1111.642-16.882c202.449,96.184,434.234,182.776,605.281,331.709,53.438,46.532,113.86,111.354,89.9,188.317-37.086,119.147-218.686,171.8-318.659,209.376" transform="translate(82.05 1262.906)" fill="none" stroke="#fff" stroke-miterlimit="10" stroke-width="1"/>
      <path id="Path_205" data-name="Path 205" d="M1013.449-748.892C877.9-708.631,382.918-585.633,565.653-350.42,694.831-184.143,947.269-94.685,1130.91-7.548c206.9,98.178,448.227,186.939,620.229,342.873C1972.376,535.9,1686.276,666.452,1505.362,733.8" transform="translate(100.04 1254.818)" fill="none" stroke="#fff" stroke-miterlimit="10" stroke-width="1"/>
      <path id="Path_206" data-name="Path 206" d="M1020.489-751.488C878.614-709.082,378.839-580.63,578.012-340.975,714.74-176.462,961.793-87.274,1149.437,1.8c211.3,100.306,461.556,191.474,634.764,354.056,216.6,203.306-88.532,335-262.74,399.235" transform="translate(118.936 1246.768)" fill="none" stroke="#fff" stroke-miterlimit="10" stroke-width="1"/>
      <path id="Path_207" data-name="Path 207" d="M1028.12-754.07C880.9-709.786,374.064-574.8,590.683-331.479,735.2-169.152,977.192-79.673,1168.769,11.164c212.977,100.987,459.977,192.9,636.458,353.95C2034.079,573.956,1719.2,710.246,1538.1,776.4" transform="translate(137.093 1238.76)" fill="none" stroke="#fff" stroke-miterlimit="10" stroke-width="1"/>
      <path id="Path_208" data-name="Path 208" d="M1035.8-756.64C887.712-711.806,383.615-576.809,594.017-333.258c145.546,168.483,398.422,260.817,594.441,353.8C1405.294,123.4,1662.629,217.695,1839.2,385.678,2061.47,597.15,1731.6,733.718,1554.744,797.725" transform="translate(155.053 1230.791)" fill="none" stroke="#fff" stroke-miterlimit="10" stroke-width="1"/>
      <path id="Path_209" data-name="Path 209" d="M1042.266-759.2C883.285-710.753,381.325-573.377,606.855-323.777c151.3,167.438,400.855,259.2,600.29,353.708,218.234,103.411,474.13,197.811,653.112,364.974,234.221,218.747-105.543,357.957-290.14,424.153" transform="translate(174.088 1222.864)" fill="none" stroke="#fff" stroke-miterlimit="10" stroke-width="1"/>
      <path id="Path_210" data-name="Path 210" d="M1049.585-761.74C892.138-713.449,390.436-575.687,610.118-325.533,762.948-151.505,1022.973-57.376,1226.98,39.333c221.762,105.129,488.829,201.293,667.138,376.166,226.564,222.2-128.3,361.11-307.836,424.908" transform="translate(192.127 1214.975)" fill="none" stroke="#fff" stroke-miterlimit="10" stroke-width="1"/>
      <path id="Path_211" data-name="Path 211" d="M1056.414-764.27C894.095-714.158,386.45-569.4,623.1-315.973c160.01,171.35,416.144,266.542,623.449,364.724,223.6,105.9,486.462,203.225,668.762,376.047C2155.5,652.5,1786.345,796.813,1601.9,861.771" transform="translate(210.512 1207.129)" fill="none" stroke="#fff" stroke-miterlimit="10" stroke-width="1"/>
      <path id="Path_212" data-name="Path 212" d="M1063.291-766.787c-163.6,50.846-666.8,194.083-437.076,449.076,160.72,178.4,428.5,275.565,640.235,375.887,227.54,107.811,500.328,207.042,682.522,387.243,233.757,231.194-152.157,375.136-331.471,437.724" transform="translate(228.71 1199.323)" fill="none" stroke="#fff" stroke-miterlimit="10" stroke-width="1"/>
      <path id="Path_213" data-name="Path 213" d="M1069.152-769.291C897.08-715.455,394.177-567.284,639.5-308.17,806.33-131.96,1070.7-34.1,1285.558,67.619c228.52,108.184,500.275,208.248,684.806,387.071C2215.28,692.035,1817.3,840.431,1632.015,904.528" transform="translate(247.787 1191.558)" fill="none" stroke="#fff" stroke-miterlimit="10" stroke-width="1"/>
      <path id="Path_214" data-name="Path 214" d="M1076.129-771.782C904.93-717.86,402.642-569.829,643-309.886,812.019-127.094,1086.082-27.108,1306.051,77.07c232,109.878,514.551,211.935,698.3,398.271,237.945,241.3-176.436,388.744-356.784,450.585" transform="translate(265.614 1183.833)" fill="none" stroke="#fff" stroke-miterlimit="10" stroke-width="1"/>
      <path id="Path_215" data-name="Path 215" d="M1082.323-774.26c-179.036,56.772-682.44,211.324-425.88,474,176.017,180.209,446.189,281.089,669.55,386.8,233.634,110.575,512.722,213.395,699.845,398.144,250,246.828-176.558,399.083-363.575,462.659" transform="translate(284.092 1176.148)" fill="none" stroke="#fff" stroke-miterlimit="10" stroke-width="1"/>
      <path id="Path_216" data-name="Path 216" d="M1088.728-776.725c-179.458,57.3-679.409,210.369-429.075,474.766C836.753-114.91,1118.477-11.893,1346.4,96.02c237.1,112.252,526.772,217.3,713.071,409.348,242.751,250.24-200.833,402.212-382.383,463.4" transform="translate(302.225 1168.504)" fill="none" stroke="#fff" stroke-miterlimit="10" stroke-width="1"/>
      <path id="Path_217" data-name="Path 217" d="M1094.407-779.177c-188.96,60.75-687.5,219.781-420.618,486.823C858.284-107.745,1134.5-4.182,1366.322,105.515,1604.065,218.01,1893.758,323.4,2081.571,514.683c253.062,257.749-201.412,412.354-390.462,475.524" transform="translate(320.956 1160.9)" fill="none" stroke="#fff" stroke-miterlimit="10" stroke-width="1"/>
      <path id="Path_218" data-name="Path 218" d="M1100.712-781.616c-187.747,60.784-685.29,220.142-423.53,487.59,186.844,190.9,473.031,296.907,709.934,409.049,241.537,114.332,540.388,222.254,728.2,420.376,246.545,260.087-227.134,415.791-409.647,476.262" transform="translate(338.929 1153.336)" fill="none" stroke="#fff" stroke-miterlimit="10" stroke-width="1"/>
      <path id="Path_219" data-name="Path 219" d="M1105.872-784.042c-197.905,64.523-690.921,228.417-415.209,499.7C882.658-95.434,1167.578,11.261,1407,124.543c243.05,114.992,538.833,223.5,729.656,420.241,258.241,266.251-227.807,425.962-417.674,488.34" transform="translate(357.926 1145.813)" fill="none" stroke="#fff" stroke-miterlimit="10" stroke-width="1"/>
      <path id="Path_220" data-name="Path 220" d="M1112.058-786.455C916.052-722.1,422.876-557.43,694.208-286,889.423-90.707,1183.024,18.055,1428.146,134.077c243.875,115.427,538.621,224.259,731.645,420.069C2428.86,827.094,1929.1,990.787,1733.227,1054.6" transform="translate(375.772 1138.33)" fill="none" stroke="#fff" stroke-miterlimit="10" stroke-width="1"/>
      <path id="Path_221" data-name="Path 221" d="M1116.933-788.854C909-720.1,422.444-551.262,708.557-276.329c200.813,192.971,491.855,302.7,739.663,419.95,246.68,116.71,553.438,227.946,744.387,431.269,260.275,277.147-254.686,439.213-446.546,501.206" transform="translate(394.807 1130.89)" fill="none" stroke="#fff" stroke-miterlimit="10" stroke-width="1"/>
      <path id="Path_222" data-name="Path 222" d="M1122.84-791.241C916.331-722.465,430.463-553.547,712.1-277.957,915.744-78.687,1216.318,33.32,1469.555,153.18c250.093,118.371,566.427,232.314,756.765,442.481,252.869,279.223-280.384,442.3-466.494,501.94" transform="translate(412.686 1123.488)" fill="none" stroke="#fff" stroke-miterlimit="10" stroke-width="1"/>
      <path id="Path_223" data-name="Path 223" d="M1127.106-793.615c-219.272,73.554-694.924,246.454-401.367,525.4C933.757-70.549,1234.076,41.892,1489.492,162.753c251.179,118.855,565.921,232.859,758.131,442.342,263.1,286.744-281.753,452.353-475.779,514.026" transform="translate(432.088 1116.126)" fill="none" stroke="#fff" stroke-miterlimit="10" stroke-width="1"/>
      <path id="Path_224" data-name="Path 224" d="M1133.032-795.975C917.566-723.172,438.847-548.61,729.57-269.826c212,203.294,520.493,318.5,781.733,442.162,252.487,119.52,564.1,234.52,760.025,442.161,276.435,292.978-289.643,464.267-485.921,526.153" transform="translate(449.715 1108.807)" fill="none" stroke="#fff" stroke-miterlimit="10" stroke-width="1"/>
      <path id="Path_225" data-name="Path 225" d="M1143.219-798.323C993.355-747.313,725.652-676.753,655.03-508.65c-40.766,97.037,26.813,185.318,95.192,248.554,217.5,201.145,523.233,317.007,787.4,442.03,254.858,120.623,579.427,238.117,772.165,453.37,266,297.071-315,466.941-506.668,526.891" transform="translate(462.966 1101.525)" fill="none" stroke="#fff" stroke-miterlimit="10" stroke-width="1"/>
      <path id="Path_226" data-name="Path 226" d="M1142.564-800.657C915.291-722.731,448.055-543.273,747.743-261.684c220.83,207.494,535.7,325.459,805.56,453.23,258.463,122.374,592.03,242.054,783.947,464.591,258.015,299.179-340.326,469.574-527.383,527.613" transform="translate(486.944 1094.287)" fill="none" stroke="#fff" stroke-miterlimit="10" stroke-width="1"/>
      <path id="Path_227" data-name="Path 227" d="M1153.337-802.978C1002.353-750.824,740.5-679.513,667.937-512.76c-44.391,102.016,28.815,194.883,100.974,260.874C993.925-46.107,1308.8,72.466,1580.652,201.168c259.185,122.706,591.607,242.727,785.214,464.439,268.052,306.971-343.869,479.97-537.947,539.711" transform="translate(499.384 1087.089)" fill="none" stroke="#fff" stroke-miterlimit="10" stroke-width="1"/>
      <path id="Path_228" data-name="Path 228" d="M1158.177-805.286c-151.316,52.659-410.406,124.248-483.858,290.48C629.563-413.52,700.2-319.8,772.189-253.448c229.5,211.5,551.961,332.493,830.089,464.254,260.152,123.244,590.619,243.809,787,464.255C2668.6,988.6,2038.353,1166.293,1839.911,1226.9" transform="translate(517.646 1079.932)" fill="none" stroke="#fff" stroke-miterlimit="10" stroke-width="1"/>
      <path id="Path_229" data-name="Path 229" d="M1162.962-807.582c-151.25,53.036-423.854,129.166-486.934,303.169-35.508,97.948,31.436,185.265,99.588,249.4,231.768,218.12,565.331,341.364,848.47,475.467,263.692,124.892,603.074,247.788,798.523,475.471,271.127,315.842-376.957,493.8-570.892,552.568" transform="translate(535.855 1072.812)" fill="none" stroke="#fff" stroke-miterlimit="10" stroke-width="1"/>
      <path id="Path_230" data-name="Path 230" d="M1167.672-809.864C1015.233-756,746.591-680.477,682.371-506.42,644.156-402.841,719.117-310.951,791.831-245.2c238.342,215.536,567.517,339.456,854.188,475.323,163.012,77.258,326.8,154.285,483.62,243.678,115.41,65.791,240.779,138.746,326.075,243.018,260.78,318.786-403.172,496.4-592.391,553.29" transform="translate(554.03 1065.735)" fill="none" stroke="#fff" stroke-miterlimit="10" stroke-width="1"/>
      <path id="Path_231" data-name="Path 231" d="M1172.823-812.133c-151.332,53.877-434.951,133.858-488.451,316.174C653.605-391.117,735.808-299.35,808.382-235.343c242.259,213.674,571.86,338.484,860.245,475.143,156.43,74.124,313.32,148.248,464.382,232.962,122.079,68.461,255.916,144.2,346.469,253.574,271.016,327.337-410.255,507.509-604.26,565.393" transform="translate(571.666 1058.698)" fill="none" stroke="#fff" stroke-miterlimit="10" stroke-width="1"/>
      <path id="Path_232" data-name="Path 232" d="M1177.279-814.389C1025.6-759.975,744.985-679.429,690.563-497.936,659.3-393.673,739.51-301.028,811.793-236.861c247.037,219.3,584.1,346.531,878.938,486.347,162.943,77.27,326.394,154.576,483.276,243.723,116.066,65.951,241.951,139.267,329.257,242.628,282.417,334.363-418.8,518.849-616.982,577.528" transform="translate(589.889 1051.702)" fill="none" stroke="#fff" stroke-miterlimit="10" stroke-width="1"/>
      <path id="Path_233" data-name="Path 233" d="M1181.679-816.632C1029.728-761.7,752.1-680.876,696.792-499.9,664.9-395.563,743.307-303.508,815.34-238.378,1065.178-12.474,1412.7,116.79,1713.025,259.19c162.861,77.225,326.127,154.659,482.927,243.752,120.553,68.5,251.737,144.59,340.481,253.816,273.075,336.1-446.151,521.5-639.291,578.254" transform="translate(608.07 1044.746)" fill="none" stroke="#fff" stroke-miterlimit="10" stroke-width="1"/>
      <path id="Path_234" data-name="Path 234" d="M1185.968-818.862C1035.783-764.14,758.816-681.4,703-501.868c-34.142,109.816,52.573,206.616,129.1,273.362,255.9,223.181,600,353.495,903.291,497.412,162.791,77.249,326.156,154.581,482.861,243.76,124.089,70.622,262.683,149.528,351.079,265.041,260,339.748-468.352,522.618-661.577,578.968" transform="translate(626.26 1037.831)" fill="none" stroke="#fff" stroke-miterlimit="10" stroke-width="1"/>
      <path id="Path_235" data-name="Path 235" d="M1190.176-821.078c-150.328,55.2-424.481,138.471-480.966,317.257-36.476,115.464,58.917,216.635,139.484,285.227C1108.657,2.732,1452.719,133.817,1757.9,278.633c169.234,80.3,339.108,160.777,501.427,254.53,117.884,68.087,248.825,144.668,333.555,254.107,269.544,348.143-474.6,533.137-674.771,591.074" transform="translate(644.431 1030.959)" fill="none" stroke="#fff" stroke-miterlimit="10" stroke-width="1"/>
      <path id="Path_236" data-name="Path 236" d="M1194.265-823.282c-151.091,55.923-421.516,138.459-478.883,317.515-36.9,115.177,56.346,216.545,136.855,285.7,264.369,227.089,616.9,360.594,928.234,508.444,169.148,80.325,338.738,160.974,501.066,254.558,118.941,68.571,248.587,144.935,335.474,253.886,282.5,354.216-489.247,545.88-688.813,603.214" transform="translate(662.632 1024.124)" fill="none" stroke="#fff" stroke-miterlimit="10" stroke-width="1"/>
      <path id="Path_237" data-name="Path 237" d="M1198.011-825.473C1047.08-769.164,763.695-681.67,718.1-495.248c-27.232,111.334,60.18,206.353,137.524,273.711C1123.669,11.9,1485.6,147.423,1802.947,298.131c169.086,80.3,338.648,160.995,500.91,254.567,122.686,70.753,258.762,150.27,345.85,265.1,271.086,357.44-514.46,547.627-711.923,603.935" transform="translate(681.078 1017.329)" fill="none" stroke="#fff" stroke-miterlimit="10" stroke-width="1"/>
      <path id="Path_238" data-name="Path 238" d="M1201.934-827.651c-151.091,56.826-431.453,144.59-477.723,330.491C695.069-380.068,791.113-280.586,872.96-211.6c273.756,230.726,632.718,367.373,952.8,519.5,175.4,83.368,351.539,167.044,519.206,265.344C2465,643.616,2599.545,723.605,2682.4,838.8c258.889,359.974-539.576,549.325-735.017,604.649" transform="translate(699.251 1010.575)" fill="none" stroke="#fff" stroke-miterlimit="10" stroke-width="1"/>
      <path id="Path_239" data-name="Path 239" d="M1206.236-829.815c-152.087,57.633-439.357,148.38-478.116,339.969-23.467,115.98,74.768,214.826,155.516,282.454,278.013,232.843,641.276,370.883,965.534,525.07,173.684,82.589,348.056,165.555,514.243,262.642,120.615,70.466,253.3,149.487,339.325,262.429,281.413,369.473-544.772,566.029-745.553,622.428" transform="translate(716.961 1003.864)" fill="none" stroke="#fff" stroke-miterlimit="10" stroke-width="1"/>
      <path id="Path_240" data-name="Path 240" d="M1209.957-831.967c-152.2,58.15-436.44,149.2-475.815,340.272-23.861,115.8,72.955,214.818,153.292,282.931,281.9,238.986,654.581,379.2,984.789,536.242,173.625,82.573,347.6,165.826,513.821,262.691,124.056,72.3,263.561,154.8,349.414,273.551,269.183,372.319-569.982,567.64-769.22,623.2" transform="translate(735.16 997.19)" fill="none" stroke="#fff" stroke-miterlimit="10" stroke-width="1"/>
      <path id="Path_241" data-name="Path 241" d="M1213.618-834.1c-150.311,57.9-433.631,150.778-473.429,340.563C714.688-371.926,820.33-268.6,905.125-198.853c287.29,236.308,657.451,377.724,990.243,536.135C2068.929,419.9,2242.826,503.214,2409.05,600.01c127.783,74.411,273.457,159.9,358.887,284.7,256.806,375.145-595.766,569.392-792.879,623.961" transform="translate(753.329 990.56)" fill="none" stroke="#fff" stroke-miterlimit="10" stroke-width="1"/>
      <path id="Path_242" data-name="Path 242" d="M1217.192-836.23C1066.1-777.555,786.575-685.05,746.224-495.38,719.131-368.031,833.705-260.552,922.688-188.9c291.137,234.438,661.323,376.666,995.977,536,179.749,85.578,360.126,171.838,531.53,273.432,121.816,72.2,259.566,155,341.9,273.879,265.7,383.63-606.958,580.629-808.488,636.023" transform="translate(771.504 983.97)" fill="none" stroke="#fff" stroke-miterlimit="10" stroke-width="1"/>
      <path id="Path_243" data-name="Path 243" d="M1220.665-838.343C1069.587-779.18,792.981-686.19,752.232-497.205c-27.445,127.3,85.6,234.77,174.315,306.979,295.431,240.471,674.668,384.762,1015.462,547.163,173.347,82.605,347.076,165.974,513.049,262.814C2583.781,694.856,2728.531,780.3,2816.8,904.1c278.136,390.085-621.435,592.575-824.934,648.113" transform="translate(789.692 977.417)" fill="none" stroke="#fff" stroke-miterlimit="10" stroke-width="1"/>
      <path id="Path_244" data-name="Path 244" d="M1224.045-840.442C1072.97-780.787,799.321-687.494,758.219-499.025c-27.7,127.033,83.893,235.037,172.257,307.467,300.352,246.184,687.7,392.78,1035.024,558.339,179.552,85.587,359.6,172.023,530.848,273.514,126.258,74.821,269.031,160.507,352.925,284.829,264.881,392.525-646.69,593.945-849.426,648.88" transform="translate(807.894 970.908)" fill="none" stroke="#fff" stroke-miterlimit="10" stroke-width="1"/>
      <path id="Path_245" data-name="Path 245" d="M1227.074-842.528C1075.069-782,791.425-684.068,762.016-488.463c-19.345,128.637,95.918,234.709,186.43,306.877,305.417,243.514,690.687,391.4,1040.335,558.228,185.643,88.573,372.048,178,548.422,284.222,123.318,74.268,264.767,160.88,344,285.309,251.688,395.257-672,595.311-873.914,649.635" transform="translate(826.362 964.439)" fill="none" stroke="#fff" stroke-miterlimit="10" stroke-width="1"/>
      <path id="Path_246" data-name="Path 246" d="M1230.65-844.6C1079.552-783.92,784-680.211,766.359-477.864c-11.27,129.223,108.927,234.934,200.579,306.294C1276.665,69.578,1661.25,218.7,2012.85,386.511c179.323,85.591,359.027,172.2,530.094,273.592C2670.1,735.47,2811.931,821.2,2898.482,944.6c286.305,408.208-677.26,617.953-883.4,673.032" transform="translate(844.207 958.01)" fill="none" stroke="#fff" stroke-miterlimit="10" stroke-width="1"/>
      <path id="Path_247" data-name="Path 247" d="M1233.808-846.661c-151.455,61.345-443.441,165.3-461.535,367.032-11.6,129.33,107.192,234.688,198.676,306.77,313.964,247.373,707.85,398.3,1065.68,569.256,185.4,88.576,371.49,178.113,547.623,284.3,124.5,75.055,264.59,161.183,346.723,284.956,272.7,410.948-703.171,619.265-908.729,673.8" transform="translate(862.391 951.622)" fill="none" stroke="#fff" stroke-miterlimit="10" stroke-width="1"/>
      <path id="Path_248" data-name="Path 248" d="M1236.887-848.708C1085.44-786.863,800.144-683.69,778.506-484.563c-14.469,133.136,109.96,242.772,203.888,316.01,319.07,248.808,715.823,401.621,1078.148,574.85,183.74,87.847,367.984,176.825,542.783,281.692C2733.848,766.3,2886.148,858.277,2966.7,992.352c246.746,410.714-732.449,614.922-937.56,668.951" transform="translate(880.581 945.274)" fill="none" stroke="#fff" stroke-miterlimit="10" stroke-width="1"/>
      <path id="Path_249" data-name="Path 249" d="M1239.9-850.742c-151.275,62.313-433.52,165.621-455.478,364.457-15.338,138.894,118.117,252.713,216.512,327.743C1324.189,87.942,1720.361,241.989,2084.6,416.206c189.752,90.763,380.119,182.735,559.889,292.338,122.034,74.4,259.16,160.708,339.887,282.413,281.056,423.747-741.152,637.93-948.625,692.2" transform="translate(898.76 938.966)" fill="none" stroke="#fff" stroke-miterlimit="10" stroke-width="1"/>
      <path id="Path_250" data-name="Path 250" d="M1242.844-852.763C1091.635-789.929,812.51-686.3,790.34-488c-15.584,139.361,116.091,252.172,214.806,328.256,327.7,252.573,733.072,408.479,1103.558,585.874,183.486,87.855,367.381,177.022,541.951,281.815,131.188,78.755,282.684,170.989,365.966,304.064,266.608,426.015-766.32,638.926-974.536,693.021" transform="translate(916.939 932.699)" fill="none" stroke="#fff" stroke-miterlimit="10" stroke-width="1"/>
      <path id="Path_251" data-name="Path 251" d="M1245.7-854.771C1094.175-791.249,818.623-687.916,796.235-489.7c-15.72,139.16,115.058,252.483,213.186,328.761,332.407,258.381,746.7,416.48,1123.547,597.013,189.5,90.779,379.455,182.932,559,292.457,129.166,78.791,277.787,170.637,356.607,304.56,72.931,123.912,25.456,240.61-78.885,328.761-246.808,208.5-619.332,287.081-921.574,365.064" transform="translate(935.13 926.472)" fill="none" stroke="#fff" stroke-miterlimit="10" stroke-width="1"/>
      <path id="Path_252" data-name="Path 252" d="M1248.178-856.766c-152.764,64.609-436.4,172.954-446.988,377.651-7.247,139.976,127.205,252.475,227.118,328.2,337.3,255.645,749.563,415.135,1128.653,596.939,195.329,93.678,391.512,188.8,575.83,303.112,125.544,77.86,273.539,171.543,347.15,305.052,70.528,127.919,13.247,242.534-91.866,329.261-251.93,207.871-628.4,286.908-934.525,365.363" transform="translate(953.638 920.285)" fill="none" stroke="#fff" stroke-miterlimit="10" stroke-width="1"/>
      <path id="Path_253" data-name="Path 253" d="M1251.174-858.747C1097.475-793.161,804.825-679.555,806.7-468.49,807.934-328.329,945.9-216.421,1047.72-140.849c341.413,253.414,752.93,413.978,1133.988,596.832,189.19,90.783,378.766,183.133,558.035,292.576,129.223,78.886,277.956,171.916,358.966,304.26,78.365,128.026,31.878,247.644-77.291,339.94-257.339,217.574-646.829,297.694-962.142,377.958" transform="translate(971.558 914.141)" fill="none" stroke="#fff" stroke-miterlimit="10" stroke-width="1"/>
      <path id="Path_254" data-name="Path 254" d="M1253.834-860.716C1100.2-794.565,810.946-680.61,812.558-470.139c1.079,140.715,137.081,251.355,239.536,328.133,346.075,259.344,766.8,421.889,1154.142,607.967,195.03,93.7,390.745,189,574.8,303.227,127.439,79.091,272.866,171.276,349.6,304.744,70.5,122.62,26.051,238.548-75.457,328.133-258.573,228.192-669.714,309.407-990.739,390.577" transform="translate(989.744 908.035)" fill="none" stroke="#fff" stroke-miterlimit="10" stroke-width="1"/>
      <path id="Path_255" data-name="Path 255" d="M1256.437-862.672C1102.369-795.754,820.21-683.341,818.422-474.933,817.179-329.744,959.522-215.338,1064.2-137.6,1415.262,123.113,1839.182,287.6,2230.9,475.952c193.4,92.994,387.3,187.669,570.01,300.655,132.017,81.638,291.006,181.32,364.375,324.04,65.315,127.058,6.382,241.041-95.11,326.193-268.3,225.1-673,305.413-1000.857,387.739" transform="translate(1007.925 901.969)" fill="none" stroke="#fff" stroke-miterlimit="10" stroke-width="1"/>
      <path id="Path_256" data-name="Path 256" d="M1258.973-864.614c-154.109,67.546-432.807,180.361-434.685,388.067C822.926-325.821,975.075-206.9,1083.735-127.539c354.532,258.947,778.554,424.2,1171.969,613.5,199.124,95.807,399.128,193.4,586.354,311.249,125.232,78.824,267.013,170.6,342.438,302.242,77.672,135.576,16.4,257.72-95.938,349.008-275.81,224.124-680.75,304.781-1014.657,388.071" transform="translate(1026.113 895.947)" fill="none" stroke="#fff" stroke-miterlimit="10" stroke-width="1"/>
      <path id="Path_257" data-name="Path 257" d="M1261.443-866.544c-153.978,68.116-429.37,181.439-431.289,388.4-1.39,150.332,149.294,269.577,258.163,349.537,359.917,264.348,792.244,431.9,1192.225,624.585,193.09,93.018,386.525,187.865,568.94,300.811,132.857,82.257,290.275,181.3,366.671,323.773,74.047,138.09,4.2,259.935-109.529,349.537-282.958,222.934-688.871,304.252-1028.449,388.4" transform="translate(1044.301 889.962)" fill="none" stroke="#fff" stroke-miterlimit="10" stroke-width="1"/>
      <path id="Path_258" data-name="Path 258" d="M1263.859-868.46C1110.082-799.8,837.93-686,836.018-479.745c-1.4,151.013,147.088,268.925,256.954,350.058C1458.426,140.189,1898.737,309.883,2305.555,506c198.775,95.823,398.25,193.706,585.222,311.4,130.084,81.888,285.728,182.132,356.751,324.286,69.969,140.05-9.187,262.917-123.149,350.058-289.812,221.606-697.3,303.805-1042.23,388.715" transform="translate(1062.489 884.02)" fill="none" stroke="#fff" stroke-miterlimit="10" stroke-width="1"/>
      <path id="Path_259" data-name="Path 259" d="M1265.922-870.363c-156.016,70.306-433.573,188.94-423.7,401.244,7.054,151.652,158.854,268.634,270.639,349.516,369.28,267.182,809.2,438.589,1217.447,635.646,204.471,98.694,409.816,199.406,601.282,322.006,127.727,81.789,280.617,182.021,346.731,324.795,66.521,143.655-22.224,265.513-136.794,350.575-296.41,220.068-706,303.436-1056,389.031" transform="translate(1080.968 878.119)" fill="none" stroke="#fff" stroke-miterlimit="10" stroke-width="1"/>
      <path id="Path_260" data-name="Path 260" d="M1268.515-872.254C1111.97-801.062,829.224-677.675,848.693-461.626c13.579,150.693,164.645,265.775,276.741,346.527C1499.221,154.17,1943.294,326.787,2355.8,526.1c202.818,98,406.346,198.11,596.48,319.426,127.963,81.646,279.509,181.4,349.274,321.772,68.505,137.831-4.082,258.84-114.106,346.527-299.155,238.416-737.539,323.007-1098.256,410.628" transform="translate(1098.86 872.254)" fill="none" stroke="#fff" stroke-miterlimit="10" stroke-width="1"/>
    </g>
  </g>
</svg>
